<?xml version="1.0" encoding="UTF-8" standalone="no"?>
<!-- Created with Inkscape (http://www.inkscape.org/) -->

<svg
   xmlns:dc="http://purl.org/dc/elements/1.1/"
   xmlns:cc="http://creativecommons.org/ns#"
   xmlns:rdf="http://www.w3.org/1999/02/22-rdf-syntax-ns#"
   xmlns:svg="http://www.w3.org/2000/svg"
   xmlns="http://www.w3.org/2000/svg"
   xmlns:sodipodi="http://sodipodi.sourceforge.net/DTD/sodipodi-0.dtd"
   xmlns:inkscape="http://www.inkscape.org/namespaces/inkscape"
   width="210mm"
   height="297mm"
   viewBox="0 0 210 297"
   version="1.1"
   id="svg8"
   inkscape:version="0.92.3 (2405546, 2018-03-11)"
   sodipodi:docname="icon-plus.svg">
  <defs
     id="defs2" />
  <sodipodi:namedview
     id="base"
     pagecolor="#ffffff"
     bordercolor="#666666"
     borderopacity="1.0"
     inkscape:pageopacity="0.0"
     inkscape:pageshadow="2"
     inkscape:zoom="0.35"
     inkscape:cx="-340.10539"
     inkscape:cy="621.45082"
     inkscape:document-units="mm"
     inkscape:current-layer="layer1"
     showgrid="false"
     inkscape:window-width="1366"
     inkscape:window-height="705"
     inkscape:window-x="-8"
     inkscape:window-y="-8"
     inkscape:window-maximized="1" />
  <metadata
     id="metadata5">
    <rdf:RDF>
      <cc:Work
         rdf:about="">
        <dc:format>image/svg+xml</dc:format>
        <dc:type
           rdf:resource="http://purl.org/dc/dcmitype/StillImage" />
        <dc:title></dc:title>
      </cc:Work>
    </rdf:RDF>
  </metadata>
  <g
     inkscape:label="Camada 1"
     inkscape:groupmode="layer"
     id="layer1">
    <path
       style="fill:#ffffff;fill-opacity:1;stroke:none;stroke-width:0.26499999;stroke-miterlimit:4;stroke-dasharray:none;stroke-opacity:1"
       d="m 109.65665,94.049409 c -4.73815,0 -8.55297,3.814294 -8.55297,8.552451 V 139.504 l -36.90162,0.0816 c -4.738142,0.0105 -8.5443,3.83291 -8.533847,8.57105 0.01046,4.73814 3.833429,8.5443 8.571571,8.53384 l 36.863896,-0.0811 v 36.86442 c 0,4.73815 3.81482,8.55245 8.55297,8.55245 4.73815,0 8.55245,-3.8143 8.55245,-8.55245 v -36.90214 l 36.90214,-0.0816 c 4.73814,-0.0104 8.54378,-3.83343 8.53333,-8.57157 -0.0105,-4.73814 -3.83291,-8.54378 -8.57106,-8.53333 l -36.86441,0.0811 v -36.86441 c 0,-4.738157 -3.8143,-8.552451 -8.55245,-8.552451 z"
       id="rect10"
       inkscape:connector-curvature="0" />
  </g>
</svg>
