<?xml version="1.0" encoding="UTF-8" standalone="no"?>
<!-- Created with Inkscape (http://www.inkscape.org/) -->

<svg
   xmlns:dc="http://purl.org/dc/elements/1.1/"
   xmlns:cc="http://creativecommons.org/ns#"
   xmlns:rdf="http://www.w3.org/1999/02/22-rdf-syntax-ns#"
   xmlns:svg="http://www.w3.org/2000/svg"
   xmlns="http://www.w3.org/2000/svg"
   xmlns:sodipodi="http://sodipodi.sourceforge.net/DTD/sodipodi-0.dtd"
   xmlns:inkscape="http://www.inkscape.org/namespaces/inkscape"
   width="180mm"
   height="180mm"
   viewBox="0 0 180 180"
   version="1.1"
   id="svg8"
   inkscape:version="0.92.3 (2405546, 2018-03-11)"
   sodipodi:docname="icon-user.svg">
  <defs
     id="defs2" />
  <sodipodi:namedview
     id="base"
     pagecolor="#ffffff"
     bordercolor="#666666"
     borderopacity="1.0"
     inkscape:pageopacity="0.0"
     inkscape:pageshadow="2"
     inkscape:zoom="0.35"
     inkscape:cx="-121.17537"
     inkscape:cy="413.16464"
     inkscape:document-units="mm"
     inkscape:current-layer="layer1"
     showgrid="false"
     inkscape:window-width="1366"
     inkscape:window-height="705"
     inkscape:window-x="-8"
     inkscape:window-y="-8"
     inkscape:window-maximized="1" />
  <metadata
     id="metadata5">
    <rdf:RDF>
      <cc:Work
         rdf:about="">
        <dc:format>image/svg+xml</dc:format>
        <dc:type
           rdf:resource="http://purl.org/dc/dcmitype/StillImage" />
        <dc:title></dc:title>
      </cc:Work>
    </rdf:RDF>
  </metadata>
  <g
     inkscape:label="Camada 1"
     inkscape:groupmode="layer"
     id="layer1"
     transform="translate(-26.592691,-53.145456)">
    <path
       style="fill:#ffffff;fill-opacity:1;stroke:none;stroke-width:0.37516382;stroke-miterlimit:4;stroke-dasharray:none;stroke-opacity:1"
       d="m 115.88159,61.371225 a 81.729391,81.729391 0 0 0 -81.729375,81.729375 81.729391,81.729391 0 0 0 81.729375,81.72938 81.729391,81.729391 0 0 0 81.7299,-81.72938 81.729391,81.729391 0 0 0 -81.7299,-81.729375 z m 0.80202,10.101193 a 74.568189,74.568189 0 0 1 74.56806,74.568062 74.568189,74.568189 0 0 1 -17.54622,48.05081 l -41.60934,-1.84847 c -8.38179,0.60649 -11.62508,-11.11451 -10.48308,-16.78657 6.63706,-4.09714 12.48727,-9.30516 13.7051,-19.30735 0.32541,0.11651 4.90241,-2.14121 4.90254,-5.00331 -2.6e-4,-2.26424 -1.10803,-4.26609 -2.73575,-4.94389 -0.004,-0.0317 -0.003,-0.0706 0.0145,-0.12453 0.0446,-0.13364 0.14453,-0.24413 0.18913,-0.37776 0.0433,-0.13 -0.0558,-0.4559 0,-0.56741 0.0797,-0.15937 0.29857,-0.21837 0.37827,-0.37775 0.0563,-0.11268 -0.0891,-0.28866 0,-0.37776 0.0445,-0.0445 0.14412,0.0445 0.18862,0 0.0386,-0.0386 -0.0375,-0.4925 0,-0.5674 0.0797,-0.15937 0.32197,-0.20873 0.37828,-0.37776 0.0398,-0.11953 0,-0.25176 0,-0.37775 0.063,-0.063 0.14881,-0.10944 0.18861,-0.18914 0.0563,-0.11269 -0.0564,-0.26558 0,-0.37827 0.0797,-0.15937 0.29858,-0.21839 0.37828,-0.37775 0.0606,-0.1211 -0.0587,-1.01641 0,-1.13379 0.0399,-0.0797 0.14933,-0.10943 0.18913,-0.18913 0.0564,-0.11268 -0.0891,-0.28866 0,-0.37776 0.39098,-0.39103 -0.0155,0.59738 0.37775,-0.18913 0.0563,-0.1127 -0.0891,-0.28917 0,-0.37827 0.0445,-0.0445 0.14464,0.0445 0.18914,0 0.0445,-0.0445 -0.0282,-0.13233 0,-0.18862 0.0797,-0.15937 0.29806,-0.2189 0.37776,-0.37827 0.10072,-0.20144 -0.10072,-0.17632 0,-0.37776 0.43248,-0.86492 -0.078,0.80203 0.37827,-0.56689 0.0199,-0.0598 -0.0153,-0.12803 0,-0.18913 0.0483,-0.19326 0.14033,-0.37364 0.18862,-0.5669 0.0153,-0.0611 -0.0153,-0.12803 0,-0.18913 0.0483,-0.19327 0.15003,-0.37154 0.18913,-0.56689 0.0595,-0.29727 -0.0735,-0.65117 0,-0.94516 0.0342,-0.13665 0.14464,-0.24413 0.18914,-0.37776 0.0199,-0.0598 -0.0199,-0.12933 0,-0.18913 0.0446,-0.13363 0.12562,-0.25177 0.18862,-0.37776 0.063,-0.12599 0.11103,-0.26107 0.18913,-0.37827 0.0494,-0.0741 0.14934,-0.10892 0.18914,-0.18862 0.0891,-0.17818 0.0647,-0.41134 0.18913,-0.56689 0.1419,-0.17737 0.425,-0.20091 0.5669,-0.37827 0.12448,-0.15556 0.0995,-0.3887 0.18861,-0.56689 0.10158,-0.20315 0.27671,-0.36374 0.37828,-0.56689 0.57073,-1.14145 -0.0271,-0.0803 0.18913,-0.94516 0.0683,-0.27332 0.28866,-0.48876 0.37775,-0.75603 0.0398,-0.11953 0,-0.25177 0,-0.37775 v -0.18914 -0.18862 -0.18914 c 0,-0.063 -0.0282,-0.13283 0,-0.18913 0.27809,-0.55617 0.18914,0.29344 0.18914,-0.56689 0.0282,-0.0845 0.13922,-0.11504 0.18862,-0.18914 0.0781,-0.11721 0.13684,-0.24696 0.18914,-0.37775 0.46708,-1.16767 -0.0649,-0.0588 0.37827,-0.94516 0.063,-0.12599 0.10412,-0.26507 0.18862,-0.37776 0.10691,-0.14254 0.27137,-0.23573 0.37827,-0.37827 0.46789,-0.62387 0.37775,-1.52907 0.37775,-2.26756 0,-0.189 0.0598,-0.38761 0,-0.56689 -0.0902,-0.27044 -0.29052,-0.0741 -0.18913,-0.37827 0.0445,-0.13363 0.12613,-0.25177 0.18913,-0.37776 0.063,-0.12599 0.10464,-0.26558 0.18914,-0.37827 0.10689,-0.14255 0.27084,-0.23521 0.37775,-0.37775 0.0845,-0.11269 0.10114,-0.26777 0.18914,-0.37776 0.16696,-0.20871 0.41863,-0.34503 0.56689,-0.56741 0.11048,-0.16575 0.0647,-0.41134 0.18914,-0.56689 0.14188,-0.17737 0.43061,-0.19605 0.56688,-0.37775 0.0756,-0.10079 -0.0564,-0.26557 0,-0.37827 0.0797,-0.15937 0.25177,-0.25177 0.37776,-0.37776 0.063,-0.063 0.16094,-0.10463 0.18914,-0.18913 0.0398,-0.11953 -0.0398,-0.25823 0,-0.37776 0.0282,-0.0845 0.12613,-0.12613 0.18913,-0.18913 v -0.18914 -0.18862 -0.18913 c 0,-0.063 -0.0446,-0.14454 0,-0.18914 0.0996,-0.0996 0.27816,-0.089 0.37776,-0.18862 0.0996,-0.0996 0.10463,-0.26558 0.18913,-0.37827 0.21382,-0.28509 0.5422,-0.47095 0.75603,-0.75603 0.0845,-0.1127 0.12613,-0.25176 0.18913,-0.37775 0,-0.063 -0.0282,-0.13284 0,-0.18914 0.0398,-0.0797 0.16042,-0.10463 0.18862,-0.18913 0.0339,-0.1016 0,-0.5955 0,-0.75551 v -1.51206 c 0,-0.16378 -0.0365,-0.64653 0,-0.75602 0.24539,-0.73604 0.18914,-0.0178 0.18914,-0.75603 v -0.75602 c 0,-0.063 0.0446,-0.14412 0,-0.18862 -0.0455,-0.0455 -0.71053,0.0455 -0.75603,0 -0.006,-0.006 0,-0.52161 0,-0.56741 0,-0.18899 -0.0371,-0.38157 0,-0.56689 0.0391,-0.19534 0.15003,-0.37156 0.18914,-0.56689 0.0247,-0.12355 -0.0306,-0.25552 0,-0.37776 0.0342,-0.13666 0.14453,-0.24464 0.18913,-0.37827 0.0199,-0.0598 0,-0.12561 0,-0.18861 v -0.56741 -0.18862 c 0,-0.063 0.0445,-0.14464 0,-0.18914 -0.0446,-0.0446 -0.12803,-0.0153 -0.18913,0 -0.38653,0.0966 -0.74311,0.29966 -1.13378,0.37776 -0.12356,0.0247 -0.25227,0 -0.37827,0 h -2.07895 c -0.0684,0 -1.00136,0.0331 -1.13378,0 -0.13665,-0.0342 -0.24413,-0.14403 -0.37775,-0.18862 -0.0598,-0.0199 -0.13284,0.0282 -0.18914,0 -0.0797,-0.0399 -0.11504,-0.13974 -0.18913,-0.18914 -0.1172,-0.0781 -0.24413,-0.14463 -0.37776,-0.18913 -0.0647,-0.0216 -0.69133,-0.0216 -0.75602,0 -0.13363,0.0445 -0.25229,0.12613 -0.37828,0.18913 -0.12599,0 -0.25552,-0.0306 -0.37775,0 -0.27331,0.0683 -0.47814,0.33146 -0.75603,0.37776 -0.29479,0.0491 -1.13424,0 -1.51205,0 -0.13144,0 -0.87624,0.0342 -0.94464,0 -0.78653,-0.39327 0.20188,0.0133 -0.18914,-0.37776 -0.0446,-0.0446 -0.14464,0.0445 -0.18914,0 -0.0445,-0.0446 0.0563,-0.16093 0,-0.18913 -0.11269,-0.0564 -0.25176,0 -0.37775,0 -0.17035,0 -0.82621,-0.0397 -0.94516,0 -0.13362,0.0445 -0.24412,0.14453 -0.37776,0.18913 -0.12244,0.0408 -0.79043,0 -0.94516,0 h -1.51153 c -0.12856,0 -0.90757,0.0251 -0.94517,0 -0.11719,-0.0781 -0.0719,-0.29965 -0.18913,-0.37775 -0.10482,-0.0699 -0.25824,0.0398 -0.37776,0 -0.16904,-0.0563 -0.20871,-0.32187 -0.37775,-0.37827 -0.0122,-0.004 -0.71884,-0.0129 -1.09503,-0.009 -0.12539,0.001 -0.21379,0.004 -0.22789,0.009 -0.13363,0.0446 -0.24464,0.14463 -0.37827,0.18913 -0.0598,0.0199 -0.13284,-0.0282 -0.18914,0 -0.0797,0.0398 -0.10891,0.14934 -0.18861,0.18914 -0.17817,0.0891 -0.38381,0.11012 -0.5669,0.18862 -0.25896,0.11098 -0.49707,0.2673 -0.75602,0.37827 -0.1831,0.0785 -0.38871,0.0995 -0.56689,0.18862 -0.20316,0.10158 -0.35863,0.28877 -0.56741,0.37827 -0.23873,0.10228 -0.5091,0.10704 -0.75551,0.18914 -0.26727,0.0891 -0.4827,0.30945 -0.75602,0.37775 -0.12223,0.0306 -0.25228,0 -0.37828,0 h -0.37775 -1.32292 c -0.0458,0 -0.56089,-0.006 -0.56689,0 -0.0446,0.0446 0.0445,0.14463 0,0.18913 -0.0386,0.0386 -0.49199,-0.0375 -0.56689,0 -0.55616,0.27809 0.29291,0.18862 -0.56741,0.18862 -0.13666,0.0342 -0.25176,0.12614 -0.37775,0.18914 0,0.063 0.0563,0.16094 0,0.18913 -0.37797,0.18899 -0.28341,-0.0945 -0.56689,0 -0.13364,0.0445 -0.24463,0.14464 -0.37827,0.18914 -0.10948,0.0365 -0.59174,0 -0.75551,0 h -0.18914 c -0.063,0 -0.13273,0.0282 -0.18913,0 -0.15938,-0.0797 -0.2184,-0.29857 -0.37776,-0.37827 -0.27246,-0.13624 -0.21839,-0.0341 -0.16588,0.032 -0.0298,-0.0335 -0.0767,-0.0855 -0.21239,-0.22118 -0.0563,-0.0282 -0.14412,0.0446 -0.18862,0 -0.0445,-0.0445 0,-0.12562 0,-0.18862 -0.12599,-0.063 -0.25228,-0.12613 -0.37827,-0.18913 -0.11269,-0.0376 -0.95068,0 -1.13378,0 -0.13145,0 -0.87686,-0.0342 -0.94516,0 -0.15937,0.0797 -0.22497,0.28605 -0.37776,0.37775 -1.74845,1.04907 0.21807,-0.20154 -1.51205,0.56741 -0.33567,0.14918 -0.61025,0.41489 -0.94465,0.56689 -0.36272,0.16487 -0.76652,0.22453 -1.13429,0.37776 -0.39009,0.16254 -0.75581,0.3779 -1.13379,0.56689 l -0.94516,0.37827 c -0.12086,0.0483 -1.21526,0.50769 -1.51153,0.56689 -0.12354,0.0247 -0.25875,-0.0398 -0.37827,0 -0.0845,0.0282 -0.10893,0.14933 -0.18862,0.18914 -0.1127,0.0563 -0.26557,-0.0563 -0.37827,0 -0.0797,0.0398 -0.11503,0.13921 -0.18914,0.18861 -0.1172,0.0781 -0.25176,0.12614 -0.37775,0.18914 -0.063,0.063 -0.11505,0.13974 -0.18914,0.18913 -0.11721,0.0781 -0.26506,0.10412 -0.37775,0.18862 -0.14254,0.10691 -0.22548,0.28658 -0.37828,0.37827 -0.17081,0.1025 -0.38871,0.10004 -0.56689,0.18914 -0.20315,0.10157 -0.3779,0.25177 -0.56689,0.37776 -0.18899,0.063 -0.38379,0.11063 -0.56689,0.18913 -0.25895,0.11098 -0.51142,0.23799 -0.75602,0.37776 -0.19721,0.1127 -0.35142,0.30647 -0.56689,0.37827 -0.17929,0.0598 -0.39142,-0.0702 -0.56689,0 -0.16544,0.0662 -0.23573,0.27084 -0.37828,0.37775 -1.16016,0.87012 0.36215,-0.36968 -0.75551,0.18914 -0.0563,0.0282 0.0446,0.14412 0,0.18862 -0.0517,0.0517 -0.6535,-0.0513 -0.75602,0 -0.15937,0.0797 -0.20924,0.32197 -0.37827,0.37827 -0.44911,0.14968 -0.34332,-0.22358 -0.75603,0.18914 -0.0996,0.0996 -0.0714,0.29965 -0.18862,0.37775 -0.10483,0.0699 -0.26558,-0.0563 -0.37827,0 -0.159369,0.0797 -0.229497,0.27895 -0.377753,0.37775 -0.05241,0.0349 -0.132789,-0.0282 -0.189138,0 -0.07968,0.0398 -0.126134,0.12614 -0.189134,0.18914 -0.063,0.063 -0.148778,0.10943 -0.188619,0.18913 -0.02817,0.0563 0.04454,0.14464 0,0.18914 -0.04454,0.0445 -0.144598,-0.0445 -0.189138,0 -0.04454,0.0445 0.05635,0.16042 0,0.18862 -0.112688,0.0564 -0.258228,-0.0398 -0.377753,0 -0.08452,0.0282 -0.126135,0.12614 -0.189135,0.18914 -0.06299,0.063 -0.139718,0.11503 -0.189137,0.18913 -0.07814,0.1172 -0.07193,0.29966 -0.189135,0.37776 -0.104828,0.0699 -0.265065,-0.0563 -0.377756,0 -0.05634,0.0282 0.02817,0.13283 0,0.18913 -0.03984,0.0797 -0.109456,0.14934 -0.189135,0.18914 -0.112689,0.0564 -0.265065,-0.0563 -0.377753,0 -0.26233,0.13116 -0.189138,0.3362 -0.189138,0.56689 0,0.063 0.02817,0.13232 0,0.18862 -0.07736,0.15471 -0.482923,0.32144 -0.377753,0.56741 -0.07398,0.18495 -0.126138,0.37789 -0.189138,0.56688 0,0.126 0.03984,0.25823 0,0.37776 -0.02817,0.0845 -0.139716,0.11504 -0.189135,0.18913 -0.07814,0.1172 -0.144078,0.24413 -0.188618,0.37776 -0.01992,0.0598 0.04454,0.14464 0,0.18914 -0.04454,0.0445 -0.144595,-0.0445 -0.189135,0 -0.04454,0.0445 0,0.12613 0,0.18913 -0.125992,0.063 -0.25228,0.12562 -0.378272,0.18862 -0.248796,0.0829 -0.400034,-0.14457 -0.566891,0.18914 -0.05634,0.1127 0.03056,0.25604 0,0.37827 -0.04832,0.19326 -0.140301,0.37364 -0.188619,0.56689 -0.01527,0.0611 0.01992,0.12882 0,0.18862 -0.04455,0.13364 -0.161504,0.24013 -0.189135,0.37827 -0.03706,0.18532 0.03107,0.38048 0,0.56689 -0.03275,0.19652 -0.134408,0.37534 -0.189137,0.56689 -0.07136,0.24975 -0.146434,0.49982 -0.189135,0.75603 -0.02072,0.12428 0.02471,0.2542 0,0.37775 -0.03906,0.19534 -0.155869,0.37091 -0.188619,0.56741 -0.03107,0.18642 0.05976,0.38761 0,0.56689 -0.07183,0.21548 -0.24199,0.38518 -0.378272,0.56689 -0.05345,0.0713 -0.108939,0.14933 -0.188619,0.18914 -0.05752,0.0288 -0.482295,0 -0.567407,0 h -0.188618 c -0.063,0 -0.144598,-0.0445 -0.189138,0 -0.04454,0.0445 0.01992,0.12881 0,0.18861 -0.04454,0.13363 -0.126135,0.25228 -0.189135,0.37827 -0.121009,0.24202 -0.169727,0.33214 -0.20929,0.40463 0.04294,-0.0617 0.08161,-0.0815 0.02066,0.16226 -0.04832,0.19326 -0.140827,0.37364 -0.189135,0.5669 -0.01527,0.0611 0,0.12613 0,0.18913 v 1.32292 c 0,0.15081 0.0378,0.83125 0,0.94464 -0.04454,0.13363 -0.144587,0.24465 -0.189137,0.37827 -0.01992,0.0598 0.02817,0.13222 0,0.18862 -0.236284,0.47257 -1.000207,0.24469 -1.322917,0.56741 -0.04455,0.0445 0,0.12562 0,0.18862 0,0.0851 -0.02876,0.50938 0,0.56689 0.03984,0.0797 0.149296,0.10944 0.189137,0.18914 0.0501,0.1002 -0.04285,0.8166 0,0.94516 0.101928,0.30579 0.377754,0.0589 0.377754,0.56689 0,0.12598 -0.03984,0.25822 0,0.37775 0.05634,0.16903 0.298593,0.2189 0.378272,0.37827 0.02817,0.0563 -0.01992,0.12882 0,0.18862 0.04454,0.13363 0.154461,0.24161 0.188619,0.37827 0.03056,0.12223 -0.03984,0.25824 0,0.37776 0.02817,0.0845 0.160964,0.10464 0.189135,0.18914 0.03984,0.11953 -0.03984,0.25822 0,0.37775 0.02817,0.0845 0.149299,0.10944 0.189137,0.18914 0.05635,0.11268 -0.05635,0.26558 0,0.37827 0.03984,0.0797 0.149294,0.10892 0.189135,0.18862 0.02817,0.0563 0,0.12613 0,0.18913 v 0.18914 0.94464 2.83497 0.37776 c 0,0.063 -0.04454,0.14463 0,0.18913 0.04454,0.0446 0.144079,-0.0445 0.188619,0 0.04454,0.0446 0,0.12613 0,0.18914 0,0.13144 -0.03417,0.87634 0,0.94464 0.15522,0.31044 0.781367,0.30115 0.605131,0.84491 -0.06931,-0.007 -0.138756,-0.0119 -0.208256,-0.0139 -2.156537,-9e-5 -3.904758,2.32032 -3.904671,5.18263 1.27e-4,2.8621 5.234088,4.94856 5.817732,4.51032 1.124379,10.42793 7.220645,16.15607 14.155215,20.28765 0.41366,5.72012 -4.20558,16.41124 -10.219538,16.29926 l -38.261747,2.04535 A 74.568189,74.568189 0 0 1 42.115554,146.04048 74.568189,74.568189 0 0 1 116.68361,71.472418 Z M 94.221418,146.26578 h 0.225308 c -0.01894,0.15654 -0.03685,0.31331 -0.05374,0.47026 -0.224184,-0.18291 -0.461721,-0.33526 -0.708998,-0.45475 0.198728,-0.004 0.409046,-0.0155 0.537435,-0.0155 z"
       id="path815"
       inkscape:connector-curvature="0" />
  </g>
</svg>
