<?xml version="1.0" encoding="UTF-8" standalone="no"?>
<!-- Created with Inkscape (http://www.inkscape.org/) -->

<svg
   xmlns:dc="http://purl.org/dc/elements/1.1/"
   xmlns:cc="http://creativecommons.org/ns#"
   xmlns:rdf="http://www.w3.org/1999/02/22-rdf-syntax-ns#"
   xmlns:svg="http://www.w3.org/2000/svg"
   xmlns="http://www.w3.org/2000/svg"
   xmlns:sodipodi="http://sodipodi.sourceforge.net/DTD/sodipodi-0.dtd"
   xmlns:inkscape="http://www.inkscape.org/namespaces/inkscape"
   width="143.46663mm"
   height="171.29448mm"
   viewBox="0 0 143.46663 171.29448"
   version="1.1"
   id="svg894"
   inkscape:version="0.92.3 (2405546, 2018-03-11)"
   sodipodi:docname="logo.svg">
  <defs
     id="defs888">
    <inkscape:path-effect
       effect="bspline"
       id="path-effect1557"
       is_visible="true"
       weight="33.333333"
       steps="2"
       helper_size="0"
       apply_no_weight="true"
       apply_with_weight="true"
       only_selected="false" />
    <inkscape:path-effect
       effect="bspline"
       id="path-effect1536"
       is_visible="true"
       weight="33.333333"
       steps="2"
       helper_size="0"
       apply_no_weight="true"
       apply_with_weight="true"
       only_selected="false" />
    <inkscape:path-effect
       effect="bspline"
       id="path-effect1515"
       is_visible="true"
       weight="33.333333"
       steps="2"
       helper_size="0"
       apply_no_weight="true"
       apply_with_weight="true"
       only_selected="false" />
    <inkscape:path-effect
       effect="bspline"
       id="path-effect1511"
       is_visible="true"
       weight="33.333333"
       steps="2"
       helper_size="0"
       apply_no_weight="true"
       apply_with_weight="true"
       only_selected="false" />
    <inkscape:path-effect
       effect="skeletal"
       id="path-effect1491"
       is_visible="true"
       pattern="m -133.87767,-20.731517 c 0,-2.76 2.24,-5 5,-5 2.76,0 5,2.24 5,5 0,2.76 -2.24,5 -5,5 -2.76,0 -5,-2.24 -5,-5 z"
       copytype="single_stretched"
       prop_scale="0.26458333"
       scale_y_rel="false"
       spacing="0"
       normal_offset="0"
       tang_offset="0"
       prop_units="false"
       vertical_pattern="false"
       fuse_tolerance="0" />
    <inkscape:path-effect
       effect="skeletal"
       id="path-effect1479"
       is_visible="true"
       pattern="M 0,5 C 0,2.24 2.24,0 5,0 7.76,0 10,2.24 10,5 10,7.76 7.76,10 5,10 2.24,10 0,7.76 0,5 Z"
       copytype="single_stretched"
       prop_scale="0.26458333"
       scale_y_rel="false"
       spacing="0"
       normal_offset="0"
       tang_offset="0"
       prop_units="false"
       vertical_pattern="false"
       fuse_tolerance="0" />
    <inkscape:path-effect
       effect="bspline"
       id="path-effect1477"
       is_visible="true"
       weight="33.333333"
       steps="2"
       helper_size="0"
       apply_no_weight="true"
       apply_with_weight="true"
       only_selected="false" />
    <inkscape:path-effect
       effect="skeletal"
       id="path-effect1469"
       is_visible="true"
       pattern="m -3.513143,4.2416955 c 0,-2.76 2.24,-5.00000002 5,-5.00000002 2.76,0 5,2.24000002 5,5.00000002 0,2.76 -2.24,5 -5,5 -2.76,0 -5,-2.24 -5,-5 z"
       copytype="single_stretched"
       prop_scale="0.26458333"
       scale_y_rel="false"
       spacing="0"
       normal_offset="0"
       tang_offset="0"
       prop_units="false"
       vertical_pattern="false"
       fuse_tolerance="0" />
    <inkscape:path-effect
       effect="bspline"
       id="path-effect1467"
       is_visible="true"
       weight="33.333333"
       steps="2"
       helper_size="0"
       apply_no_weight="true"
       apply_with_weight="true"
       only_selected="false" />
    <inkscape:path-effect
       effect="bspline"
       id="path-effect1451"
       is_visible="true"
       weight="33.333333"
       steps="2"
       helper_size="0"
       apply_no_weight="true"
       apply_with_weight="true"
       only_selected="false" />
  </defs>
  <sodipodi:namedview
     id="base"
     pagecolor="#ffffff"
     bordercolor="#666666"
     borderopacity="1.0"
     inkscape:pageopacity="0.0"
     inkscape:pageshadow="2"
     inkscape:zoom="0.35355339"
     inkscape:cx="-352.79619"
     inkscape:cy="274.88168"
     inkscape:document-units="mm"
     inkscape:current-layer="layer1"
     showgrid="true"
     inkscape:window-width="1366"
     inkscape:window-height="705"
     inkscape:window-x="-8"
     inkscape:window-y="-8"
     inkscape:window-maximized="1"
     width="210mm">
    <inkscape:grid
       type="xygrid"
       id="grid1447"
       originx="-34.588064"
       originy="-18.449488" />
  </sodipodi:namedview>
  <metadata
     id="metadata891">
    <rdf:RDF>
      <cc:Work
         rdf:about="">
        <dc:format>image/svg+xml</dc:format>
        <dc:type
           rdf:resource="http://purl.org/dc/dcmitype/StillImage" />
        <dc:title />
      </cc:Work>
    </rdf:RDF>
  </metadata>
  <g
     inkscape:label="Camada 1"
     inkscape:groupmode="layer"
     id="layer1"
     transform="translate(-34.588064,-107.25603)">
    <g
       id="g1562"
       transform="translate(-5.2916648,21.166714)">
      <path
         sodipodi:nodetypes="ccccccccccccccccsccccc"
         inkscape:connector-curvature="0"
         id="path1442"
         transform="scale(0.26458333)"
         d="M 410,325.37695 C 278.23998,325.37648 171.42726,432.1892 171.42773,563.94922 171.42834,695.70848 278.24074,802.52 410,802.51953 514.73811,804.35845 571.5647,741.64065 595.6582,649.93359 607.54572,604.4203 583.77538,582.09625 560,542.51953 507.55433,473.7056 419.18654,463.75642 433.73047,345.50781 c 0,0 -14.299,5.76308 -33.73046,77.01188 -13.66249,41.52639 6.47716,41.13697 0,80 -6.47717,32.38583 -1.87005,43.01132 -26.00001,72 -8.34087,10.02032 -10,10 -11,13 0,1.2954 0.18253,1.0347 20,4 10.20748,1.5273 7.8128,-3.69091 2,11 -7.64919,21.10322 -3.55342,14.5921 10,20 -6.16321,4.23844 -16.57209,4.13614 -4.99999,15.00001 8.13555,6.54883 4.91769,-3.94908 10,9.99999 5.09465,13.85083 6.69843,31.14769 5,45 -1.69836,13.85234 25,0 56.02735,-5.76758 30.62001,-5.69186 23.40447,-5.27424 53.97265,-9.23242 28.80521,-3.72985 21.38566,24.57175 5.95897,46.25765 C 392.12939,847.98162 227.28988,664.2124 224.33789,553.94922 224.34225,430.96144 330.34083,331.22671 461.18359,331.09961 444.37888,327.35067 427.21771,325.43194 410,325.37695 Z"
         style="fill:#ce0080;fill-opacity:1;stroke:none;stroke-width:1.00157475;stroke-miterlimit:4;stroke-dasharray:none;stroke-opacity:1" />
      <path
         sodipodi:nodetypes="ccsssssssssc"
         inkscape:connector-curvature="0"
         id="path1534"
         transform="scale(0.26458333)"
         d="m 455.00001,340.51969 c -10,2 -12.345,41.39376 -3.9336,68.32015 8.54494,27.35377 28.1553,41.02781 56.79297,66.69727 28.63766,25.66949 66.30143,63.33428 86.49609,99.83008 20.19462,36.4958 22.91907,71.82291 7.61523,108.65429 -15.30383,36.83135 -48.63532,75.16303 -80.30273,95.16407 -31.66742,20.00103 -57.6662,21.44416 -47.43555,22.38867 10.23062,0.9445 51.87593,0.9455 88.45703,-11.60938 36.58114,-12.55487 61.68992,-37.6646 80.52149,-69.05078 18.83157,-31.38618 23.41404,-123.19944 7.83398,-159.71484 C 639.92535,535.138 618.657,501.81178 573.29883,474.58984 543.43961,456.66967 452.39004,411.93915 455.00001,340.51969 Z"
         style="fill:#ce0080;fill-opacity:1;stroke:none;stroke-width:0.94160396px;stroke-linecap:butt;stroke-linejoin:miter;stroke-opacity:1" />
      <path
         sodipodi:nodetypes="cccccccccccccc"
         inkscape:original-d="m 124.35417,101.20833 c 6.17388,5.29141 12.3473,10.58291 18.52083,15.875 5.29209,2.64565 10.5836,5.29141 15.875,7.9375 7.05581,7.93723 14.11137,15.87474 21.16666,23.8125 -0.84762,8.47864 -1.7636,17.63838 -2.64583,26.45834 -0.8817,3.52761 -1.76362,7.05528 -2.64583,10.58333 -1.76379,1.76378 -3.52751,3.52751 -5.29167,5.29167 5.29195,-7.05584 10.5838,-14.11164 15.875,-21.16667 -0.88164,-10.58321 -1.76362,-21.16692 -2.64583,-31.75 -5.29141,-7.05582 -10.58307,-14.11138 -15.875,-21.16667 -5.2914,-0.88221 -10.58291,-1.76412 -15.875,-2.64583 -5.29156,-3.52815 -10.58307,-7.05582 -15.875,-10.58333 -3.52751,-6.173879 -7.05529,-12.34749 -10.58333,-18.520837 2.6e-4,5.291405 2.6e-4,10.583065 0,15.874997 z"
         inkscape:path-effect="#path-effect1557"
         inkscape:connector-curvature="0"
         id="path1555"
         d="m 127.44099,101.20821 c 3.08682,5.29181 9.26024,10.58331 14.99309,14.5522 5.73285,3.96889 11.02436,6.61464 17.19791,11.90627 6.17354,5.29163 13.2291,13.22914 16.33296,21.4372 3.10385,8.20807 2.18788,17.36781 1.30593,23.54158 -0.88194,6.17377 -1.76386,9.70144 -3.08676,12.34738 -1.3229,2.64594 -3.08663,4.40967 -1.32276,1.76381 1.76387,-2.64585 7.05572,-9.70165 9.26038,-18.52075 2.20466,-8.81909 1.32268,-19.4028 -1.76413,-28.22215 -3.08681,-8.81935 -8.37848,-15.87491 -13.67002,-19.84362 -5.29154,-3.96871 -10.58305,-4.85062 -15.87495,-7.05555 -5.29191,-2.20492 -10.58341,-5.73259 -14.99319,-10.58335 -4.40978,-4.850758 -7.93755,-11.024371 -9.70142,-11.465432 -1.76386,-0.44106 -1.76386,4.8506 1.32296,10.142412 z"
         style="fill:#ce0080;fill-opacity:1;stroke:none;stroke-width:0.26458332px;stroke-linecap:butt;stroke-linejoin:miter;stroke-opacity:1" />
    </g>
    <g
       aria-label="Studio R"
       style="font-style:normal;font-weight:normal;font-size:41.41606903px;line-height:1.25;font-family:sans-serif;letter-spacing:0px;word-spacing:0px;fill:#ffffff;fill-opacity:1;stroke:none;stroke-width:1.0354017;stroke-opacity:1"
       id="text1566"
       transform="translate(-5.2916667,37.041671)">
      <path
         inkscape:connector-curvature="0"
         d="m 53.631171,230.73017 0.161782,-0.40446 0.52579,-0.58645 q 0.404454,-0.66735 0.667349,-0.78869 0.04044,-0.16178 0.121336,-0.30334 0.08089,-0.14156 0.121336,-0.4449 l 0.182004,-0.32356 q 0.08089,-0.0809 0.08089,-0.12134 0,-0.0404 -0.161782,-0.24267 l -0.101113,-0.42468 q 0,-0.16178 -1.071803,-1.0718 h -0.16178 l -1.456034,-0.70779 -0.08089,-0.20223 -0.161781,-0.0404 -0.202227,0.0809 h -0.04045 l -0.687572,-0.20223 q -0.82913,-0.22245 -1.092025,-0.34379 -0.04045,0.0404 -0.121336,0.0404 l -0.808908,-0.18201 q -0.343786,-0.0809 -0.424676,-0.16178 -0.06067,-0.10111 -0.343786,-0.182 -0.262895,-0.10111 -0.343786,-0.18201 -0.08089,-0.0809 -0.323563,-0.0809 l -0.505567,0.12134 q 0,-0.0607 -0.566235,-0.20223 -0.08089,-0.20222 -0.121337,-0.20222 l -0.586458,0.0809 q -0.586458,-0.28312 -0.60668,-0.28312 -0.101114,0 -0.707794,-0.10111 -0.606681,-0.12134 -0.788685,-0.24268 -0.182005,-0.12133 -0.546013,-0.24267 l -0.121336,-0.12133 q -0.04044,-0.0404 -0.22245,-0.0809 h -0.364008 q -0.121336,0 -0.343786,-0.20222 -0.202227,-0.20223 -0.546012,-0.40446 -0.323563,-0.20222 -0.586458,-0.6269 -0.242673,-0.4449 -0.262895,-0.8898 -0.04045,-0.0404 -0.04045,-0.0809 l 0.121336,-0.64713 q 0.182005,-1.23358 1.152694,-2.28516 0.161781,-0.54601 0.667348,-0.78868 l 0.08089,-0.28312 q 0.586458,-0.50557 0.82913,-0.80891 0.262895,-0.30334 0.586458,-0.48534 0.323564,-0.20223 0.505568,-0.36401 l 0.364008,-0.16178 q -0.02022,-0.18201 0.889799,-0.84936 0.930243,-0.68757 1.435811,-0.88979 0.525789,-0.22245 0.687571,-0.32357 0.182004,-0.10111 1.011134,-0.30334 0.202227,-0.54601 0.647127,-0.54601 h 0.30334 l 0.404454,-0.40445 0.546012,0.0404 q 0.04045,-0.0404 0.22245,-0.24267 0.182004,-0.22245 0.606681,-0.22245 l 2.446945,-0.74824 h 0.161782 l 0.161781,0.0404 q 0.161782,0 0.404454,-0.28311 0.262895,-0.28312 0.667349,-0.28312 0.08089,0 0.30334,0.16178 0,0.0405 0.04044,0.0405 l 0.52579,-0.16179 0.626904,0.0405 0.788685,-0.20223 q 0.748239,0 1.314475,0.36401 l 0.04044,-0.0809 v -0.12134 q 0,-0.34378 0.384231,-0.34378 0.161782,0 0.202227,0.0809 l 0.242672,0.14156 h 0.141559 q 0.04044,0 0.52579,0.24267 0.30334,-0.20223 0.384231,-0.20223 0.384231,0 0.606681,0.32357 l 0.343785,-0.0404 q 0.161782,-0.16178 0.202227,-0.16178 0.121337,0 0.323563,0.32356 l 0.121337,0.0404 h 0.505567 q 0.04045,0 0.161781,0.12133 l 0.22245,0.18201 q 0.161781,0.16178 0.22245,0.26289 0.06067,0.10112 0.141558,0.18201 0.52579,-0.22245 0.566236,-0.22245 0.202227,0 0.30334,0.34378 0,0.28312 0.343786,0.56624 0.364008,0.26289 0.364008,0.56623 0.444899,0.20223 0.444899,0.64713 l 0.384231,0.99091 -0.08089,0.34379 q 0.161781,0.32356 0.161781,0.36401 l -0.08089,0.74824 0.08089,0.78868 q 0,0.6269 -0.586458,1.0718 -0.121336,0 -0.404454,0.18201 -0.262895,0.16178 -0.30334,0.16178 -0.52579,0 -0.707794,-0.24267 -0.161782,-0.2629 -0.323563,-0.38423 -0.161782,-0.12134 -0.161782,-0.32357 0,-0.46512 0.626904,-0.91002 0.283117,0 0.404454,-0.182 0,-0.42468 -0.182005,-0.58646 -0.182004,-0.16178 -0.404453,-0.4449 -0.202227,-0.28312 -0.4449,-0.4449 -0.242672,-0.182 -0.404453,-0.4449 -0.141559,-0.26289 -0.262895,-0.26289 l -0.283118,0.0404 -0.586458,-0.12133 q -0.930244,-0.12134 -1.698706,-0.42468 h -0.404454 l -1.092025,-0.16178 q -0.283118,0.12133 -0.808908,0.12133 l -1.334697,0.20223 -0.546013,-0.0404 q -0.06067,0 -1.112248,0.34378 l -0.202227,0.0405 h -0.546012 q -0.04045,0 -0.52579,0.20222 -0.465122,0.20223 -0.788685,0.28312 l -0.182004,0.0809 q -0.04045,0.0404 -0.121337,0.0404 l -0.323563,-0.0404 -1.779596,0.86958 -0.283118,-0.16178 q -0.343786,-0.16178 -0.384231,-0.16178 -0.283118,0 -0.283118,0.28311 l -0.04044,0.38423 q -0.262895,0.16179 -0.343786,0.24268 -0.08089,0.0809 -0.202227,0.12133 H 49.48552 q -0.242672,0 -0.465122,0.22245 -0.202227,0.20223 -0.364008,0.22245 -0.161782,0.0202 -0.465122,0.18201 -0.04045,0.0809 -0.323563,0.16178 -0.283118,0.0809 -0.444899,0.38423 -0.141559,0.28312 -0.343786,0.28312 l -0.404454,-0.0809 -0.22245,0.40445 q -0.424676,0.10111 -0.485344,0.12134 -0.262895,0.34378 -0.52579,0.52579 -0.262895,0.182 -0.52579,0.40445 -0.242672,0.20223 -0.364008,0.42468 -0.101114,0.22245 -0.323563,0.364 -0.22245,0.12134 -0.384232,0.52579 l -0.202226,0.20223 q -0.505568,0.42468 -0.505568,0.91002 0,0.34379 0.485345,0.50557 0.485344,0.16178 0.606681,0.26289 0.121336,0.10112 0.364008,0.10112 0.242672,0 0.465122,0.10111 0.222449,0.10111 0.748239,0.32356 0.101114,0.32357 0.202227,0.32357 0.04045,0 0.161782,-0.16178 0.121336,-0.16179 0.364008,-0.16179 0.262895,0 0.505568,0.32357 l 0.161781,-0.12134 h 0.08089 l 0.262895,0.0809 h 0.04044 l 0.242672,-0.12133 q 0.04045,-0.0405 0.121337,-0.0405 0.06067,0 0.626903,0.20223 h 0.04044 q 0.04045,0 0.323563,-0.0809 0.303341,0.0809 0.343786,0.12133 l 0.283118,0.16178 q 0,0.0607 0.08089,0.0607 0.08089,0 0.242672,-0.0809 0.161781,-0.10111 0.30334,-0.10111 0.161782,0 0.364009,0.22245 0.323563,-0.14156 0.364008,-0.14156 0.182004,0 0.626903,0.30334 l 0.384231,0.0809 h 0.4449 l 0.667348,0.12134 q 0.283118,0.30334 0.586458,0.46512 0.04045,-0.22245 0.283118,-0.22245 0.323563,0 0.990912,0.26289 l 0.161781,0.0404 0.161782,0.12133 q 0.343786,-0.0809 0.424676,-0.0809 0.404454,0 0.404454,0.28312 0,0.24267 -0.121336,0.6269 0.04045,0 0.121336,0.0809 0.101114,-0.12134 0.22245,-0.16179 l 0.323563,-0.182 q 0.08089,-0.0809 0.121336,-0.0809 0.465122,0 1.314475,0.64713 0.849353,0.64712 0.970689,1.47625 0,0.24267 0.161781,0.56624 l -0.08089,0.26289 0.04044,0.32356 q 0,0.0404 -0.08089,0.28312 l -0.04044,0.30334 q -0.04044,0.0809 -0.121336,0.14156 -0.08089,0.0607 -0.121336,0.14156 l 0.121336,0.34379 v 0.0809 q 0,0.0809 -0.161782,0.22245 -0.141559,0.14156 -0.182004,0.26289 -0.04044,0.12134 -0.141559,0.2629 -0.101113,0.12133 -0.141559,0.30334 -0.04044,0.182 -0.404453,0.42467 -0.343786,0.22245 -0.343786,0.34379 0,0.12134 0.08089,0.12134 0.242672,0 0.505567,-0.22245 0.283118,-0.24268 0.424676,-0.28312 0.141559,-0.0404 0.485345,-0.24267 l 1.900933,-0.8898 q 2.123382,-1.01114 2.366055,-1.01114 0.323563,0 0.323563,0.32357 0,0.12133 -0.283118,0.46512 -0.04044,0.95046 -0.82913,1.11225 -0.303341,0.20222 -0.465122,0.42467 h -0.161782 q -0.505567,0.56624 -1.152693,0.56624 h -0.121336 q -0.74824,0.74824 -1.820042,0.82913 -0.707794,0.70779 -1.172916,0.70779 l -0.323563,0.0809 q -0.505568,0.20223 -0.707795,0.20223 -0.04044,0 -0.161781,0.16178 l -0.30334,0.22245 q -0.384232,0.0809 -0.829131,0.4449 -0.444899,0.36401 -0.687571,0.42468 -0.22245,0.0404 -0.485345,0.16178 -0.262895,0.12133 -2.123382,1.37514 l -0.262895,0.0809 q -0.788685,0.36401 -0.990912,0.60668 -0.202227,0.22245 -0.485344,0.38423 h -0.08089 q -0.465122,0 -1.092026,0.60668 -0.04044,0.10112 -0.889798,0.34379 -0.82913,0.22245 -1.597592,0.70779 -0.485345,0.12134 -1.193139,0.32357 -0.707794,0.20222 -1.031357,0.24267 l -1.415589,0.30334 q -0.465121,0.0809 -1.071802,0.24267 -0.364009,-0.12133 -0.626904,-0.12133 l -0.364008,0.0404 q -0.08089,0 -0.262895,-0.14156 -0.161781,-0.14156 -0.444899,-0.28312 -0.283118,-0.12133 -0.283118,-0.68757 0,-0.50556 1.112248,-0.99091 1.112248,-0.50557 1.456034,-0.70779 0.161781,-0.22245 0.546013,-0.2629 0.404453,-0.0404 0.687571,-0.24267 0.283118,-0.20223 0.869576,-0.36401 l 0.808907,-0.42467 q 0.06067,-0.0404 0.101114,-0.0404 h 0.283117 q 0.141559,0 0.424677,-0.22245 0.283117,-0.22245 0.586458,-0.32356 h 0.242672 q 0.04045,0 0.121336,-0.10112 0.08089,-0.10111 0.364009,-0.26289 l 0.06067,-0.0404 h 0.202227 q 0.222449,-0.182 0.52579,-0.30334 0.30334,-0.12133 0.586458,-0.32356 l 1.577369,-0.60668 0.364009,0.0404 q 0.121336,0 0.30334,-0.182 0.202227,-0.20223 0.910021,-0.40445 0.101114,-0.16178 0.424677,-0.38423 0.323563,-0.22245 0.768462,-0.64713 z m -7.057718,5.05567 -0.283118,-0.0404 q -0.283118,0.16178 -0.566235,0.182 -0.262895,0.0202 -0.849353,0.38423 -0.566236,0.34379 -1.314475,0.66735 -0.74824,0.32356 -0.74824,0.42468 0.990912,-0.12134 2.062715,-0.54602 l 1.456033,-0.40445 q 0.283118,-0.0809 0.384231,-0.16178 0.121337,-0.0809 0.4449,-0.22245 l 0.323563,-0.24267 q 0.101113,-0.0404 0.444899,-0.16179 0.343786,-0.12133 0.343786,-0.24267 0,-0.0809 -0.08089,-0.0809 -0.728017,0 -1.152693,0.22245 -0.424677,0.22245 -0.465122,0.22245 z"
         style="font-style:normal;font-variant:normal;font-weight:normal;font-stretch:normal;font-family:'Rage Italic';-inkscape-font-specification:'Rage Italic, ';fill:#ffffff;fill-opacity:1;stroke:none;stroke-width:1.0354017;stroke-opacity:1"
         id="path1568" />
      <path
         inkscape:connector-curvature="0"
         d="m 67.079261,217.52475 0.283117,-0.0809 0.202227,-0.20223 h 0.04045 l 0.182004,0.0809 h 0.04045 q 0.485345,0 0.849353,-0.182 0.384231,-0.20223 0.626904,-0.28312 0.262895,-0.0809 0.323563,-0.12133 0.06067,-0.0405 0.101113,-0.0405 l 0.323563,0.0405 q 0.161782,0 0.424677,-0.56624 0.283117,-0.58646 0.626903,-0.84935 0.343786,-0.2629 0.687572,-0.99091 0.08089,-0.10112 0.182004,-0.30334 0.101113,-0.22245 0.161781,-0.22245 0.303341,0 0.485345,-0.38423 0.606681,-0.7078 0.990912,-0.7078 0.505567,0 0.707794,0.97069 l 0.202227,0.76846 q 0,0.0202 -0.101114,0.30334 -0.101113,0.2629 -0.101113,0.54602 0.02022,0.26289 -0.02022,0.364 -0.02022,0.0809 -0.02022,0.20223 0,0.16178 0.343786,0.16178 0.121336,0 0.444899,-0.16178 l 0.121336,-0.0404 q 0.202227,0.12133 0.343786,0.12133 0.04045,0 0.566236,-0.20222 0.546012,-0.20223 0.687571,-0.22245 0.141559,-0.0202 0.485345,-0.16179 h 0.242672 l 0.161781,0.0607 q 0.08089,0 0.323563,-0.16178 0.262895,-0.182 0.970689,-0.22245 l 0.283118,-0.12134 h 0.08089 q 0.667349,0 0.667349,0.58646 0,0.12134 -0.202227,0.42468 -0.182004,0.30334 -0.303341,0.68757 l -0.930243,1.17292 q -0.465122,0.60668 -0.930244,0.60668 -0.08089,0 -0.505567,-0.54602 0,-0.0404 -0.08089,-0.0404 -0.202227,0 -0.424677,0.0809 -0.222449,0.0809 -0.364008,0.0809 -0.06067,0 -1.071803,0.30334 l -0.485344,0.0809 q -0.08089,0 -0.384231,0.0809 l -1.031357,0.20223 q -0.52579,0.26289 -0.829131,0.99091 0,0.0404 -0.202227,0.18201 l -0.910021,1.65826 q -0.444899,0.12133 -0.586458,0.52579 l -0.08089,0.12133 q -0.22245,0.0405 -0.404454,0.2629 -0.182004,0.20222 -0.343786,0.32356 l -0.364008,0.54601 q -0.22245,0.28312 -0.4449,0.62691 -0.222449,0.32356 -0.323563,0.70779 -0.101113,0.36401 -0.161781,0.42468 -0.06067,0.0607 -0.06067,0.22245 l -0.06067,0.16178 q -0.242673,0.24267 -0.242673,0.54601 l 0.08089,0.32356 q -0.283117,0.97069 -0.283117,1.03136 0,0.0405 0.04045,0.22245 v 0.12134 q 0,0.4449 -0.323563,1.11224 l 0.04045,0.32357 -0.121336,0.91002 q 0,0.182 0.121336,0.66735 -0.08089,0.0809 -0.08089,0.12133 0,0.56624 0.586458,1.25381 0.60668,0.66735 0.60668,2.10316 0,0.12134 -0.06067,0.36401 -0.06067,0.22245 -0.08089,0.50557 -0.02022,0.26289 -0.323563,0.52579 -0.283117,0.26289 -0.485344,0.26289 -1.071803,0 -1.597593,-1.55715 -0.52579,-1.55714 -0.52579,-2.00204 l 0.04045,-0.78869 -0.121336,-0.40445 0.121336,-1.7796 -0.08089,-0.42467 0.465122,-1.73916 v -0.6269 q 0,-0.0404 0.283118,-0.32356 0,-0.0405 -0.08089,-0.0405 -0.121336,0 -0.323563,0.24267 -0.202227,0.24268 -0.505568,0.46513 l -0.161781,0.28311 q -0.04045,-0.0404 -0.161782,-0.0809 -0.101113,0.0405 -0.667348,0.95047 -0.424677,0.0607 -0.667349,0.48534 -0.242672,0.42468 -0.667349,0.42468 l -0.08089,0.0405 q -0.08089,0.58645 -0.566235,0.58645 l -0.08089,0.0404 q -0.30334,0.68757 -0.626903,0.66735 -0.202227,0.60668 -0.990912,0.82913 -0.121336,0.24267 -0.343786,0.36401 -0.242672,0.12133 -0.343785,0.22245 -0.101114,0.10111 -0.182005,0.10111 -0.262895,0 -0.262895,-0.56624 0,-0.16178 0.141559,-0.34378 0.121336,-0.20223 0.121336,-0.28312 0,-0.0404 -0.202226,-0.24267 0,-0.6269 0.323563,-0.78869 0.323563,-0.16178 0.485344,-0.46512 0.101114,-0.24267 0.404454,-0.34378 0.30334,-0.10112 0.30334,-0.2629 0,-0.14156 0.52579,-0.56623 0.52579,-0.42468 0.768462,-0.72802 0.242673,-0.32356 0.404454,-0.32356 l 0.08089,-0.0809 q 0.04044,-0.50557 0.384231,-0.50557 l 0.202227,-0.12134 0.04044,-0.16178 0.121337,-0.0809 h 0.161781 l 0.101114,-0.0809 q 0.04044,-0.50557 0.465121,-0.78869 0.4449,-0.28311 1.597593,-1.57737 1.152693,-1.31447 1.294252,-1.67848 0.141559,-0.36401 0.505567,-0.97069 0.384231,-0.6269 0.424677,-1.17291 -0.04045,-0.0809 -0.121336,-0.16179 l -0.869576,0.42468 q 0,-0.0607 -0.404454,-0.182 -0.30334,0.182 -0.444899,0.36401 -0.141559,0.182 -0.22245,0.182 l -0.283117,-0.0404 -0.889799,0.10112 q -1.193138,0.10111 -1.799819,0.48534 l -0.82913,0.24267 h -0.182005 q -0.161781,0 -0.485344,0.20223 l -0.465122,-0.0404 q -0.647126,0.34378 -0.950466,0.34378 -0.04045,0 -0.242673,-0.0404 l -2.062714,0.56623 q -0.242672,0.0809 -1.092025,0.82913 l -0.161782,0.0404 q -0.202227,0 -0.465122,-0.4449 -0.283117,-0.46512 -0.283117,-0.82913 0,-2.00205 3.437857,-2.32561 l 0.82913,-0.32356 h 0.04045 l 0.222449,0.0809 h 0.08089 q 0.121336,0 0.384231,-0.14156 0.262895,-0.16178 1.172916,-0.38423 l 0.82913,-0.22245 0.262895,0.0404 q 0.202227,0 0.4449,-0.16178 0.262895,-0.16178 0.768462,-0.22245 0.52579,-0.0809 0.728017,-0.16178 l 0.323563,-0.0809 q 0.08089,0 0.323563,-0.14156 0.262895,-0.14156 0.667348,-0.14156 0.06067,0 0.303341,0.0809 z"
         style="font-style:normal;font-variant:normal;font-weight:normal;font-stretch:normal;font-family:'Rage Italic';-inkscape-font-specification:'Rage Italic, ';fill:#ffffff;fill-opacity:1;stroke:none;stroke-width:1.0354017;stroke-opacity:1"
         id="path1570" />
      <path
         inkscape:connector-curvature="0"
         d="m 74.298762,227.59565 0.283117,0.12134 q 0.04045,-0.34379 0.384231,-0.58646 h 0.161782 q 0.202227,0 0.52579,-0.54601 l 0.343786,-0.20223 q 0.08089,0.0404 0.242672,0.0404 0.121336,0 0.222449,-0.16179 0.121337,-0.16178 0.566236,-0.6269 h 0.08089 q 0.121337,0 0.283118,-0.182 0.182004,-0.18201 0.465122,-0.18201 l 0.687571,-0.182 q 0.323563,-0.0809 0.364009,-0.0809 0.182004,-0.0607 0.889798,0.74824 0.707794,0.78868 0.707794,1.53692 0,0.42468 -0.444899,0.50557 l -0.101113,0.0809 v 0.40445 l -0.343786,0.74824 q -0.141559,0.30334 -0.343786,0.38423 -0.182004,0.32357 -0.262895,0.4449 l -0.283117,0.0404 -0.121336,0.12133 v 0.50557 q -0.182005,0.24267 -0.52579,1.0718 -0.343786,0.80891 -0.343786,1.03136 0,0.38423 0.161781,0.38423 0.121336,0 0.242673,-0.10111 0.121336,-0.10111 0.323563,-0.22245 0.222449,-0.14156 0.323563,-0.28312 0.101113,-0.14156 0.424676,-0.24267 0.323563,-0.12134 0.606681,-0.42468 0.283118,-0.30334 0.404454,-0.40445 0.121336,-0.10111 0.262895,-0.2629 0.141559,-0.182 0.182004,-0.182 0.121336,0 0.384231,-0.0809 0.04045,-0.22245 0.08089,-0.32356 l 0.485344,-0.24268 1.172916,-1.05158 0.161782,-0.20222 q 0.323563,-0.0809 0.404454,-0.12134 0.161781,-0.54601 0.546012,-0.78868 0,-0.0809 0.202227,-0.12134 0.161782,-0.32356 0.404454,-0.50557 0.262895,-0.20222 0.424676,-0.48534 l 0.465122,-0.38423 q 0.202227,-0.0809 0.283118,-0.24268 1.05158,-0.93024 1.294252,-1.05158 0.262895,-0.14155 0.82913,-0.14155 0.566236,0 0.910021,0.4449 0.364009,0.42467 0.768463,0.64712 0.424676,0.22245 0.424676,0.84935 0,0.58646 -0.910021,2.24472 -0.586458,1.73915 -0.606681,2.14361 -0.02022,0.38423 -0.182004,0.4449 -0.161781,0.0607 -0.161781,0.14156 v 0.0809 q 0,0.48534 0.161781,0.48534 0.121336,0 0.323563,-0.20223 0.22245,-0.20222 0.869576,-0.44489 l 0.182004,0.0404 q 0.586458,-0.8898 0.788685,-0.95047 0.202227,-0.0809 0.404454,-0.364 0.202227,-0.30334 0.485344,-0.32357 0.303341,-0.0202 0.384232,-0.10111 0.02022,-0.48535 0.788684,-1.09203 0.788685,-0.60668 0.910021,-0.60668 0.202227,0 0.323564,0.30334 0.121336,0.30334 0.242672,0.42468 0.141559,0.10111 0.141559,0.182 v 0.36401 q 0,0.2629 -0.262895,0.34379 -0.202227,0.4449 -0.364009,0.52579 l -0.364008,-0.0404 q -0.101114,0.12134 -0.182004,0.22245 -0.06067,0.10112 -0.08089,0.0809 -0.161782,0.0404 -0.586458,0.54602 -0.404454,0.48534 -0.728017,0.8089 l -0.08089,0.12134 q -0.161781,0.12134 -0.30334,0.16178 l -0.364009,0.30334 q -0.202226,-0.12133 -0.242672,-0.12133 -0.04044,0 -0.182004,0.16178 -0.121336,0.16178 -0.52579,0.42467 -0.384231,0.24268 -0.586458,0.56624 l -0.323563,0.32356 -0.424676,0.0607 q -0.06067,0 -0.202227,0.182 l -0.364009,0.46513 q -0.262895,0.34378 -0.82913,0.34378 -0.121336,0 -0.323563,-0.20223 -0.182004,-0.22244 -0.364009,-0.364 -0.161781,-0.16179 -0.768462,-0.91002 -0.586458,-0.76847 -0.586458,-0.80891 l 0.121336,-0.7078 -0.04044,-0.48534 q 0,-0.14156 0.182004,-0.42468 0.202227,-0.30334 0.202227,-0.32356 l -0.04045,-0.78869 q 0.04045,-0.0404 0.08089,-0.12133 l 0.283118,-0.46512 q -0.04044,-0.20223 -0.04044,-0.4449 l 0.08089,-0.66735 q -0.364009,0.16178 -0.647127,0.66735 -0.262895,0.48534 -0.707794,0.48534 -0.384231,0.68757 -0.586458,0.66735 -0.08089,0.0809 -0.121336,0.16178 l -0.283118,0.16178 -0.343785,-0.0404 -0.121336,0.50557 q -0.4449,0.24267 -0.586458,0.44489 -0.121337,0.18201 -0.404454,0.38424 l -0.343786,0.32356 h -0.323563 q -0.08089,0.54601 -0.626903,0.91002 l -0.161782,0.20223 -0.364008,-0.0404 q -0.202227,0.64713 -0.505568,0.78869 -0.343785,0 -0.950466,0.6269 -0.586458,0.6269 -0.82913,0.6269 -1.759374,0 -2.8514,-2.20427 -0.04045,-0.0809 -0.202226,-0.30334 -0.141559,-0.22245 -0.141559,-0.68757 0,-0.78869 0.202227,-1.0718 0.222449,-0.28312 0.546012,-1.05158 0.343786,-0.78869 0.505568,-0.68758 0.04045,-0.0809 0.04045,-0.24267 0.323563,-0.38423 0.323563,-0.58646 0,-0.0809 -0.08089,-0.0809 -0.04045,0 -0.242672,0.12134 l -0.283118,0.12134 q -0.182004,0.0404 -0.262895,0.16178 -0.08089,0.12133 -0.283117,0.24267 -0.202227,0.10111 -0.323563,0.182 h -0.06067 q -0.121336,-0.12133 -0.161781,-0.12133 -0.121336,0.32356 -0.202227,0.40445 l -0.242672,0.0404 q -0.444899,0.46512 -0.566236,0.46512 -0.08089,0 -0.364008,-0.14156 -0.283118,-0.14156 -0.283118,-0.28312 l 0.141559,-0.78868 v -0.36401 q 0,-0.0405 0.161782,-0.16178 0.04044,0 0.323563,-0.42468 0.283117,-0.4449 0.667349,-0.4449 z"
         style="font-style:normal;font-variant:normal;font-weight:normal;font-stretch:normal;font-family:'Rage Italic';-inkscape-font-specification:'Rage Italic, ';fill:#ffffff;fill-opacity:1;stroke:none;stroke-width:1.0354017;stroke-opacity:1"
         id="path1572" />
      <path
         inkscape:connector-curvature="0"
         d="m 93.934994,233.84446 -0.161782,-1.03135 q 0,-0.12134 0.121337,-0.38424 0.121336,0 0.202226,-0.0809 l -0.121336,-0.364 q 0,-0.7078 0.384231,-1.21337 0.404454,-0.52579 0.4449,-0.70779 0.04045,-0.182 0.566235,-1.17292 0.546013,-1.01113 0.808907,-1.29425 l 0.121337,-0.26289 0.161781,-0.0405 q 0.465122,-0.74824 1.314475,-1.35492 0.283118,-0.4449 0.687571,-0.72802 0.404454,-0.28311 0.546013,-0.40445 0.141559,-0.12134 0.424677,-0.16178 l 0.08089,-0.0404 q 0.586454,-0.58645 1.011134,-0.58645 0.14156,-0.14156 0.56624,-0.32357 h 0.22245 q 0.12133,0 0.24267,-0.0809 0.12133,-0.0809 0.24267,-0.0809 0.0809,0 0.42468,0.16178 0.32356,-0.32356 0.52579,-0.32356 0.42467,0 0.84935,0.32356 0.4449,0.32357 0.56624,0.78869 0.12133,0.46512 0.20222,0.54601 0.0809,0.0809 0.16178,0.20223 0.16178,0 0.42468,-0.74824 l 0.24267,-0.32357 q 0.54601,-0.70779 0.74824,-1.65826 0.0404,-0.0404 0.12134,-0.32356 0.0809,-0.30334 0.42467,-1.01113 0.58646,-0.84936 0.82913,-1.73916 l 0.24268,-0.364 q 0.24267,-0.16179 0.26289,-0.34379 0.0202,-0.20223 0.12134,-0.36401 0.10111,-0.16178 0.22245,-0.38423 0.14156,-0.24267 0.22245,-0.32356 0.0809,-0.0809 0.24267,-0.54601 0.16178,-0.48535 0.38423,-0.54602 0.24267,-0.0607 0.48535,-0.22245 l 0.0404,-0.14156 -0.0809,-0.28311 q 0,-0.24268 0.52579,-0.84936 0.54601,-0.60668 0.76846,-0.99091 0.24267,-0.40445 0.78869,-1.21336 0.56623,-0.82913 0.8089,-1.01113 l 0.46513,-0.48535 q 0.32356,-0.46512 0.91002,-0.46512 0.4449,0 0.93024,0.48534 0.48535,0.46513 0.48535,0.93025 0,0.16178 -0.22245,0.74824 l -0.0405,0.24267 q 0,0.32356 -0.22245,0.76846 -0.22245,0.4449 -0.26289,0.68757 l -1.13247,2.77051 q -0.20223,0.0809 -0.24268,0.12134 -0.52579,1.15269 -0.82913,1.2538 v 0.40446 q 0,0.22245 -0.28311,0.32356 l -0.0809,0.0404 q -0.182,0.76846 -0.46512,1.11224 -0.28312,0.34379 -0.42467,0.7078 -0.12134,0.34378 -0.40446,0.38423 -0.28312,0.0405 -0.28312,0.78869 -0.0809,0.40445 -0.40445,0.40445 -0.30334,0 -0.38423,0.52579 -0.0809,0.52579 -0.78869,0.56623 -0.20222,0.12134 -0.24267,0.28312 l 0.16178,0.50557 q 0,0.12134 -0.74824,0.95047 l -0.16178,0.52579 q -0.38423,0.14155 -0.6269,2.08293 l -0.24267,1.39537 0.0404,0.54601 -0.0809,0.28312 0.24267,0.82913 -0.0404,0.46512 q 0,0.32356 0.24267,0.32356 0.12134,0 0.54601,-0.364 l 0.28312,-0.12134 q 1.27403,-0.64713 1.57737,-1.25381 0.0809,-0.0809 0.28312,-0.16178 0.22245,-0.0809 0.32356,-0.22245 0.10112,-0.14156 0.16178,-0.20223 1.23359,-0.8089 1.5976,-1.41558 0.364,-0.60668 0.74824,-0.72802 l 0.16178,-0.16178 q 0.24267,-0.20223 0.40445,-0.20223 0.34379,0 0.34379,0.20223 l -0.16178,0.56623 q 0.20222,0.54602 0.20222,0.62691 0,0.70779 -0.6269,0.86957 -0.2629,0.2629 -0.42468,0.60668 -0.14156,0.34379 -0.64712,0.42468 -0.34379,0.48534 -0.62691,0.64713 -0.28312,0.14155 -0.28312,0.30334 v 0.182 q -0.16178,0.24267 -0.28311,0.32356 l -0.38423,-0.0809 q -0.0809,0.24267 -0.36401,0.66735 -0.10112,-0.0809 -0.18201,-0.0809 -0.28311,0 -0.46512,0.34379 -0.182,0.34378 -0.26289,0.34378 h -0.46513 q -0.10111,0.0607 -0.32356,0.2629 -0.22245,0.20222 -0.74824,0.20222 l -0.6269,0.12134 q -0.8898,0 -1.63804,-0.56624 -0.74824,-0.58645 -0.80891,-1.05158 -0.0404,-0.48534 -0.32356,-1.15269 l -0.0404,-0.82913 q -0.22245,-1.29425 -0.50557,-1.29425 l -0.0404,0.26289 -0.16178,0.0809 q -0.12134,0.62691 -0.40445,0.62691 -0.12134,0.0607 -0.2629,0.20222 l -0.12133,0.0809 q -0.0809,0.0404 -0.24268,0.34378 -0.14156,0.30334 -0.82913,0.84935 -0.28311,0.74824 -0.42467,0.74824 l -0.24268,-0.16178 h -0.0404 q -0.16178,0 -0.2629,0.48535 -0.10111,0.46512 -0.40445,0.46512 -0.0809,0 -0.16178,0.28312 -0.0607,0.26289 -0.343787,0.34378 -0.283117,0.0607 -0.505567,0.54601 -0.22245,0.48535 -0.30334,0.48535 -0.04045,0 -0.121336,-0.0404 l -0.343786,0.0809 q -0.101114,0.14156 -0.283118,0.46513 -0.182004,0.0607 -0.323563,0.16178 -0.626903,0.60668 -1.658261,0.60668 -0.728016,0 -1.152693,-0.30334 -0.424676,-0.32356 -0.505567,-0.54601 -0.08089,-0.22245 -0.30334,-0.54602 -0.22245,-0.34378 -0.283118,-0.82913 z m 15.065906,-12.80096 -0.20223,0.58646 q 0.2629,-0.0405 0.46512,-0.54601 0.60668,-0.86958 0.82913,-1.07181 0.2629,0 0.38423,-0.32356 0.14156,-0.34379 0.48535,-0.66735 0,-0.14156 0.30334,-0.54601 0.30334,-0.40446 0.38423,-0.56624 0.10111,-0.182 0.38423,-0.46512 0.28312,-0.28312 0.52579,-0.97069 0.2629,-0.68757 0.4449,-0.82913 0.182,-0.14156 0.182,-0.56623 0,-0.58646 -0.0809,-0.58646 -0.182,0 -0.28311,0.24267 -0.0809,0.22245 -0.38423,0.58646 l -0.68758,1.15269 q -0.40445,0.68757 -0.54601,1.09203 -0.12134,0.40445 -0.30334,0.48534 -0.16178,0.0607 -0.40445,0.38423 l -0.28312,0.28312 q -0.10111,0.24267 -0.16178,0.58646 l -0.18201,0.16178 v 0.38423 q 0,0.2629 -0.30334,0.48535 -0.30334,0.20222 -0.30334,0.26289 z m -6.99705,8.21041 0.14156,-0.26289 q 0.34378,-0.12134 0.4449,-0.60668 0.16178,-0.12134 0.82913,-1.05158 0.66734,-0.93025 0.66734,-1.03136 -0.20222,-0.20223 -0.46512,-0.20223 -0.0404,0 -0.24267,0.0809 -0.20223,0.0809 -0.42468,0.12134 -0.20222,0.0404 -0.4449,0.16178 l -0.50556,-0.0809 q -0.22245,0 -0.99091,0.58646 l -0.46513,-0.0809 q -0.12133,0 -0.40445,0.52579 l -1.031357,0.82913 h -0.121337 q -0.283117,0 -0.384231,0.50556 -0.343785,0.4449 -0.647126,0.62691 -0.30334,0.16178 -0.424676,0.48534 v 0.2629 q -0.566236,0.6269 -0.566236,0.95046 -0.424676,0.40446 -0.566235,0.86958 -0.121336,0.46512 -0.30334,0.78868 0.08089,0.28312 0.121336,0.7078 0.04045,0.40445 0.404454,0.40445 0.586458,0 1.294252,-0.70779 0.04045,-0.0405 0.343786,-0.22245 0.30334,-0.18201 0.82913,-0.7078 0.546012,-0.54601 0.606681,-0.56623 0.202226,-0.20223 0.242672,-0.20223 l 0.161777,-0.16178 q 0,-0.0809 0.16179,-0.182 0.182,-0.10112 0.46512,-0.40446 0.28312,-0.32356 0.42467,-0.38423 0.16179,-0.0607 0.22245,-0.16178 0.0607,-0.12134 0.20223,-0.22245 0.14156,-0.10111 0.14156,-0.22245 l 0.0404,-0.24267 z"
         style="font-style:normal;font-variant:normal;font-weight:normal;font-stretch:normal;font-family:'Rage Italic';-inkscape-font-specification:'Rage Italic, ';fill:#ffffff;fill-opacity:1;stroke:none;stroke-width:1.0354017;stroke-opacity:1"
         id="path1574" />
      <path
         inkscape:connector-curvature="0"
         d="m 120.4065,218.67745 -0.12134,-0.78869 v -0.12134 q 0,-0.95046 0.64713,-1.05158 0.14156,-0.0202 0.84935,-0.26289 0.36401,0.0809 0.74824,0.64713 0.40445,0.54601 0.40445,0.97068 0,0.0404 -0.0607,0.18201 -0.0607,0.14156 -0.0809,0.54601 -0.0202,0.38423 -0.40446,0.68757 -0.36401,0.28312 -0.78868,0.28312 -0.28312,0 -0.72802,-0.38423 -0.42468,-0.40445 -0.46512,-0.70779 z m -8.7362,10.11134 0.32356,-0.28312 h 0.12133 q 0.14156,0 0.42468,-0.30334 l 0.20223,-0.0809 q 0.40445,-0.60668 0.70779,-0.70779 l 0.32357,-0.24268 q 0.0809,-0.0809 0.22244,-0.14155 0.16179,-0.0607 0.48535,-0.38424 0.34379,-0.34378 0.54601,-0.34378 0.20223,0 0.32357,0.0404 0.12133,-0.24267 0.48534,-0.46512 0.36401,-0.24267 0.58646,-0.56623 l 0.26289,-0.12134 q 0.32357,-0.16178 0.56624,-0.40445 0.26289,-0.2629 0.66735,-0.2629 0.58645,0 1.21336,0.60668 0.64712,0.58646 0.64712,1.13247 l -0.34378,1.57737 q -0.34379,1.73915 -0.76846,1.82005 l -0.0809,0.42467 q -0.28312,0.20223 -0.28312,0.32357 l 0.12133,0.48534 q 0,0.10111 -0.22245,0.30334 -0.0404,0 -0.0404,0.12134 v 0.82913 q 0,0.22245 -0.28312,0.36401 0.0405,0.0404 0.12134,0.0809 0.12133,-0.12134 0.54601,-0.12134 l 0.32356,0.0404 0.4449,-0.4449 q 0.14156,-0.0405 0.38423,-0.18201 0.2629,-0.16178 0.86958,-0.40445 l 2.64917,-2.02227 q 0.54601,-0.54601 0.82913,-0.54601 0.30334,0 0.30334,0.38423 0,0.4449 -0.182,0.74824 -0.16178,0.28311 -0.30334,0.70779 -0.14156,0.40445 -0.34379,0.56624 -0.182,0.16178 -0.30334,0.364 -0.12133,0.18201 -0.66735,0.54602 -0.52579,0.36401 -0.91002,0.74824 -0.36401,0.36401 -0.60668,0.52579 l -0.86957,0.6269 -0.12134,0.20223 q -0.0405,0.0404 -0.38423,0.182 -0.32356,0.12134 -0.58646,0.32356 l -0.36401,0.20223 q -0.12133,0.0809 -0.40445,0.10111 -0.2629,0.0202 -0.46512,0.24268 -0.20223,0.20222 -0.32357,0.20222 l -0.30334,-0.0404 -0.40445,0.12133 q -0.34379,0 -0.84935,-0.40445 -0.48535,-0.42468 -0.48535,-0.8898 v -0.12133 l 0.0404,-0.28312 q 0,-0.0809 -0.12134,-0.40446 -0.12134,-0.34378 -0.12134,-0.38423 l 0.0404,-0.28311 -0.0404,-0.12134 q 0,-0.54601 0.0809,-0.68757 0.0809,-0.14156 0.12133,-0.38423 0.0404,-0.2629 0.0809,-0.42468 l 0.10112,-0.50557 q 0.0809,-0.24267 0.20222,-0.32356 0.0404,-0.16178 0.16178,-0.54601 l 0.0809,-0.36401 0.20223,-0.28312 q 0.16178,-0.16178 0.18201,-0.42467 0.0404,-0.28312 0.22245,-0.58646 0.182,-0.30334 0.182,-0.36401 0,-0.24267 -0.24267,-0.24267 -0.0809,0 -0.50557,0.32356 l -0.36401,-0.12134 q -0.0404,0 -0.22245,0.20223 0,0.0809 -0.182,0.12134 -0.18201,0.0404 -0.34379,0.30334 l -0.16178,0.0404 -0.26289,-0.12133 h -0.0809 q -0.20222,0 -0.24267,0.4449 -0.22245,0.32356 -0.58646,0.42467 l -0.44489,0.12134 q -0.22245,0.0809 -0.32357,0.36401 -0.10111,0.28311 -0.40445,0.52579 -0.30334,0.22245 -0.40446,0.22245 -0.56623,0 -0.56623,-0.62691 l 0.16178,-0.95046 z"
         style="font-style:normal;font-variant:normal;font-weight:normal;font-stretch:normal;font-family:'Rage Italic';-inkscape-font-specification:'Rage Italic, ';fill:#ffffff;fill-opacity:1;stroke:none;stroke-width:1.0354017;stroke-opacity:1"
         id="path1576" />
      <path
         inkscape:connector-curvature="0"
         d="m 134.76461,233.68268 -0.95047,0.82913 q -0.0809,-0.0809 -0.16178,-0.0809 -0.20223,0 -0.50557,0.36401 -0.28312,0.36401 -0.40445,0.36401 l -0.20223,-0.0404 q -0.50557,0.38423 -0.72802,0.4449 -0.22245,0.0607 -0.54601,0.22245 -0.30334,0.16178 -0.56623,0.18201 -0.24268,0.0202 -0.40446,0.182 -0.16178,0.14156 -0.78868,0.14156 l -0.32357,-0.0405 q -0.26289,0.12134 -0.34378,0.12134 -0.16178,0 -0.34379,-0.16178 -0.182,-0.18201 -0.40445,-0.20223 -0.20223,-0.0202 -0.42468,-0.28312 -0.22245,-0.26289 -0.42467,-0.36401 -0.18201,-0.10111 -0.30334,-0.28311 l -0.28312,-0.24268 q -0.34379,-0.24267 -0.66735,-0.88979 -0.32356,-0.64713 -0.32356,-1.01114 v -0.0809 l 0.0404,-0.38423 -0.0404,-0.4449 q 0.0809,-0.0809 0.20222,-0.34379 v -0.64712 l 0.48535,-1.61782 q 0.0404,-0.10111 -0.16178,-0.26289 -0.20223,0.30334 -0.40446,0.36401 -0.20222,0.0607 -0.28312,0.28311 -0.0607,0.22245 -0.22244,0.22245 l -0.24268,-0.0809 q -0.0404,0.0404 -0.182,0.42468 -0.14156,0.36401 -0.48535,0.36401 -0.364,0 -0.364,-0.28312 l 0.0404,-0.36401 -0.12134,-0.50557 q 0,-0.16178 0.32357,-0.6269 0.32356,-0.48534 0.58646,-0.54601 0.28311,-0.0809 0.46512,-0.38423 0.20222,-0.32357 0.84935,-0.76846 0.36401,-0.0809 0.6269,-0.52579 0.28312,-0.22245 0.72802,-0.36401 0.46512,-0.14156 0.68757,-0.40446 0.24267,-0.28311 1.37515,-0.84935 1.15269,-0.58646 1.67848,-0.58646 0.16178,0 0.4449,-0.0809 0.28312,-0.10111 0.52579,-0.16178 0.24267,-0.0809 0.50557,-0.22245 0.26289,-0.16178 0.42467,-0.16178 l 0.58646,0.20223 q 0.64713,0.182 0.78868,0.26289 0.0404,0.0405 0.40446,0.18201 0.38423,0.12133 0.76846,0.34378 0.40445,0.22245 0.40445,0.82913 -0.34378,0.50557 -0.34378,0.54601 0,0.0809 0.46512,0.24268 0.16178,0.30334 0.48534,0.78868 l 0.22245,0.7078 0.0405,1.65826 -0.0405,0.16178 q -0.22245,0.20222 -0.22245,0.26289 l 0.0607,0.40446 -0.16178,0.56623 q -0.0607,0.2629 -0.20223,0.34379 -0.14155,0.0809 -0.182,0.20222 l -0.12134,0.16179 q -0.0404,0.0607 -0.182,0.364 -0.12134,0.28312 -0.28312,0.4449 -0.16178,0.16178 -0.20222,0.38423 -0.0404,0.22245 -0.20223,0.32357 -0.16178,0.10111 -0.24267,0.22245 -0.0607,0.10111 -0.22245,0.182 z m -6.28926,0.52579 0.0809,0.46512 0.0404,0.0405 h 0.32356 l 0.10111,0.0404 q 0.40446,0.0809 0.60668,0.0809 0.62691,0 0.99092,-0.30334 0.38423,-0.32356 0.60668,-0.32356 0.22245,0 0.364,-0.30334 0.16179,-0.30334 0.20223,-0.30334 h 0.28312 l 0.0809,-0.0404 q 0,-0.46512 0.40445,-0.66734 0.42468,-0.20223 0.58646,-0.52579 0.18201,-0.34379 0.40446,-0.50557 0.22244,-0.18201 0.30334,-0.46512 l 0.16178,-0.24268 q 0.0809,-0.0809 0.0809,-0.30334 l 0.38423,-0.72801 q 0.12134,-0.50557 0.12134,-0.78869 0,-0.42467 -0.4449,-0.66735 -0.42468,-0.24267 -0.42468,-0.95046 0,-0.46512 0.46512,-0.84936 0.48535,-0.40445 0.48535,-0.48534 0,-0.12134 -0.12134,-0.12134 -0.0607,0 -0.46512,0.16179 -0.14156,0.28311 -1.43581,0.74823 -0.42468,-0.20222 -0.46512,-0.20222 -0.12134,0 -0.24268,0.24267 -0.12133,0.24267 -0.24267,0.34379 h -0.26289 q -0.0405,0 -0.2629,0.26289 -0.22245,0.2629 -0.56623,0.2629 l -0.24268,0.24267 q 0.0202,0.32356 -0.40445,0.66735 l -0.22245,0.26289 q -0.20223,0.24267 -0.52579,0.56624 l -0.36401,0.91002 q -0.22245,0.52579 -0.22245,0.78868 -0.0607,0.12134 -0.28312,0.2629 -0.20222,0.12133 -0.20222,0.32356 0,0.0404 0.14156,0.20223 0.14155,0.16178 0.14155,0.24267 l -0.0809,0.2629 -0.0809,0.74823 z"
         style="font-style:normal;font-variant:normal;font-weight:normal;font-stretch:normal;font-family:'Rage Italic';-inkscape-font-specification:'Rage Italic, ';fill:#ffffff;fill-opacity:1;stroke:none;stroke-width:1.0354017;stroke-opacity:1"
         id="path1578" />
      <path
         inkscape:connector-curvature="0"
         d="m 159.13295,214.37001 -0.0404,0.22245 q -0.0607,0.34379 -0.56623,0.68757 -0.50557,0.34379 -1.01114,0.34379 -1.27402,0 -1.27402,-1.21336 0,-0.42468 0.64712,-1.03136 0.66735,-0.6269 1.75938,-0.86958 1.11224,-0.24267 1.57737,-0.46512 0.48534,-0.24267 1.47625,-0.36401 0.16178,0.16179 0.32356,0.16179 0.2629,0 0.36401,-0.18201 0.10112,-0.182 0.46512,-0.10111 h 0.10112 l 1.0718,-0.28312 0.32356,0.12134 q 0.0809,0 0.18201,-0.0809 0.12133,-0.0809 0.28312,-0.12134 h 0.32356 l 0.38423,-0.0809 q 0.4449,-0.12134 0.52579,-0.18201 l 0.34379,0.0404 q 0.38423,0 1.2538,-0.20223 0.8898,-0.20222 1.3347,-0.22245 0.46512,-0.0202 0.66735,-0.0607 0.22245,-0.0404 0.26289,-0.0404 0.12134,0 0.30334,0.12134 0.18201,0.12133 0.2629,0.12133 0.0809,0 1.13247,-0.24267 h 0.12134 l 0.91002,0.20223 q 0.36401,-0.20223 0.48534,-0.20223 0.42468,0 0.7078,0.28312 l 0.38423,-0.16178 0.20222,0.0404 q 0.12134,0 0.36401,-0.0404 h 0.16178 q 0.14156,0 0.30334,0.0404 0.0404,0.0405 0.0809,0.0405 0.20223,0 0.32357,-0.0405 h 0.26289 l 0.86958,0.20223 0.36401,-0.0404 q 0.0404,0 0.24267,0.12134 l 0.22245,-0.0404 q 0.20223,0.14156 0.72802,0.38424 0.10111,-0.0404 0.30334,-0.0809 h 0.0404 q 0.0404,0 0.40445,0.24268 l 0.58646,0.28311 0.16178,-0.0809 q 0.56624,0.28312 0.58646,0.32357 l 0.16178,0.34378 q 0.24268,0.12134 0.54602,0.32357 0.0607,0.20222 0.24267,0.46512 v 0.16178 q 0,0.0404 0.30334,0.30334 0.32356,0.24267 0.32356,0.36401 0,0.0404 -0.0404,0.28312 v 0.0404 q 0,0.0405 0.14156,0.2629 0.14155,0.22245 0.14155,0.52579 l -0.0404,0.28311 0.0404,0.2629 -0.20222,1.35492 q -0.18201,0.20223 -0.24267,0.40445 -0.0607,0.18201 -0.30335,0.28312 -0.24267,0.10111 -0.40445,0.42468 -0.14156,0.30334 -0.42468,0.40445 -0.28311,0.10111 -0.54601,0.36401 -0.24267,0.24267 -0.56623,0.24267 l -2.16383,0.64713 -0.24267,-0.0809 q -0.36401,0.58645 -1.07181,0.58645 -0.182,0 -0.8089,0.14156 l -0.40446,0.10112 -0.32356,-0.0404 -0.74824,0.14156 q -0.34379,0.0607 -0.50557,0.16178 -0.16178,0.0809 -0.40445,0.0809 l -0.54601,0.28312 q -0.0404,0.0404 -0.12134,0.0404 -0.16178,0 -0.20223,-0.0404 l -0.28311,-0.0809 q -0.16179,0.0404 -0.30334,0.14156 -0.12134,0.10111 -0.24268,0.10111 l -0.24267,-0.20223 -0.38423,0.32357 q -0.24267,0.0404 -0.64713,0.182 -0.26289,-0.14156 -0.34378,-0.14156 l -0.7078,0.30334 -0.40445,-0.12133 -0.0405,0.12133 q -0.28311,0 -0.58645,0.20223 -0.28312,0.20223 -0.48535,0.20223 -0.14156,0 -0.30334,-0.16178 -0.0809,0 -0.16178,-0.0809 -0.20223,0.14156 -0.30334,0.30335 -0.10111,0.14155 -0.4449,0.28311 l -0.48534,-0.14156 q 0,0.0607 -0.38424,0.22245 -0.38423,0.14156 -0.40445,0.24268 l -0.20223,0.28311 q -0.14155,0.34379 -0.22245,0.56624 -0.0809,0.22245 -0.20222,0.36401 -0.12134,0.12133 -0.22245,0.4449 -0.10112,0.32356 -0.36401,0.70779 l -0.0404,0.24267 q -0.12133,0.16178 -0.364,0.36401 l -0.46513,0.86958 q -0.20222,0.30334 -0.20222,0.42467 0,0.30334 0.54601,0.58646 l 2.1436,1.82004 0.34379,0.20223 h 0.0404 l -0.0809,0.36401 q 0.16178,0.10111 0.20222,0.10111 0.12134,0 0.12134,-0.182 h 0.12133 q 0.0405,0 0.20223,0.182 l 0.22245,0.12134 q 0.14156,0.14156 0.52579,0.46512 0.38423,0.32356 0.38423,0.4449 l -0.0404,0.16178 h 0.12133 q 0.0809,-0.0809 0.12134,-0.0809 0.0809,0 0.4449,0.24267 l 0.26289,0.12134 q 0.80891,0.58646 0.97069,0.78868 0.18201,0.20223 0.50557,0.46513 0.34379,0.24267 0.54601,0.56623 l 2.32561,1.73915 q 2.91207,2.18405 3.27608,2.91207 0.0809,0.12134 0.38423,0.24267 0.30334,0.12134 0.86957,0.66735 0.56624,0.56624 0.68758,0.86958 v 0.70779 q 0,0.0809 -0.20223,0.20223 l -0.2629,0.24267 q -0.52579,0.54601 -0.91002,0.54601 -0.95046,0 -1.39536,-0.42467 l -0.10112,-0.0404 h -0.20222 q -0.32357,0 -0.36401,-0.56624 L 174.3,240.21464 q -1.01114,-0.32356 -1.53693,-1.03136 l -1.15269,-1.0718 q -0.0405,-0.0404 -0.66735,-0.76846 -0.6269,-0.74824 -1.11225,-1.0718 -0.46512,-0.32357 -0.74824,-0.66735 -0.26289,-0.34379 -0.72801,-0.64713 -0.4449,-0.30334 -0.95047,-1.01113 -0.50557,-0.72802 -0.56624,-0.76847 -0.91002,-0.48534 -0.86957,-1.0718 -0.12134,-0.0809 -0.58646,-0.16178 -0.24267,-0.2629 -0.30334,-0.28312 -0.0607,-0.0202 -0.10111,-0.0607 l 0.0404,-0.32356 q -0.60668,-0.182 -0.84935,-0.4449 -0.24267,-0.28312 -0.64713,-0.74824 -0.40445,-0.46512 -0.70779,-0.70779 -0.28312,-0.2629 -0.30334,-0.40446 -0.0202,-0.14155 -0.38423,-0.34378 -0.14156,0.24267 -0.30334,0.38423 -0.16178,0.14156 -0.24267,0.32356 l -0.0809,0.12134 q -0.28311,0.28312 -0.28311,0.6269 -0.30334,0.24267 -0.38423,0.86958 l -0.91003,2.06271 -0.16178,0.74824 -0.12133,1.27403 q -0.0607,0.54601 -0.46512,0.54601 l -0.40446,0.0404 q -0.16178,-0.0809 -0.76846,-0.14156 -0.58646,-0.0809 -0.97069,-1.19314 -0.0404,-0.12133 -0.24267,-0.40445 -0.18201,-0.28312 -0.18201,-0.50557 0,-0.16178 0.12134,-0.52579 l 0.0809,-0.46512 q 0,-0.12134 0.50557,-1.15269 l 1.0718,-2.0425 0.52579,-0.78868 q 0.10111,-0.16178 0.22245,-0.60668 0.12134,-0.46512 0.36401,-0.76846 0.26289,-0.30334 0.26289,-0.4449 0,-0.24268 -0.38423,-0.48535 -0.36401,-0.24267 -0.40445,-0.46512 l -0.0809,-0.20223 q -1.07181,-0.6269 -1.07181,-1.41558 0,-0.42468 1.07181,-1.05158 1.0718,-0.64713 1.43581,-0.72802 0.38423,-0.0809 0.74824,-0.28312 l 0.34378,-0.0809 0.28312,-0.24267 q 0.24267,-0.0809 0.58646,-0.14156 0.36401,-0.0809 0.60668,-0.82913 0.2629,-0.76846 0.46512,-0.8898 0.40446,-0.82913 0.54601,-1.25381 0.0405,-0.0809 0.22245,-0.364 0.20223,-0.30335 0.40446,-0.97069 0.20222,-0.68758 0.28312,-0.68758 0.0809,0 0.32356,-0.0809 l -0.20223,-0.54601 q 0,-0.0809 0.16178,-0.24267 -0.28311,-0.34379 -0.28311,-0.82913 0,-0.78869 1.11224,-0.78869 0.20223,0 0.80891,0.36401 0.60668,0.34379 0.64713,0.50557 0.0404,0.16178 0.26289,0.52579 0.22245,0.34379 0.22245,0.58646 0,0.78868 -0.26289,1.03135 -0.2629,0.24268 -0.54602,1.07181 l -0.54601,1.53692 -0.0809,0.38423 -0.10111,0.16178 0.50556,-0.12133 q 0.16179,-0.4449 1.37515,-0.50557 l 1.27403,-0.40445 h 0.38423 l 1.23358,-0.34379 q 0.0809,0 0.58646,-0.0809 h 0.12134 l 0.24267,-0.0404 q 0.0809,0.0404 0.16178,0.16178 h 0.0809 q 0.22245,0 0.24267,-0.2629 0.0202,-0.26289 0.58646,-0.26289 0.0809,0 0.14156,0.10111 0.0809,0.10111 0.16178,0.10111 0.0405,-0.22245 0.30334,-0.30334 0.28312,-0.10111 0.40446,-0.10111 l 0.32356,0.0404 q -0.0404,-0.0404 -0.0404,-0.12134 0,-0.18201 1.23359,-0.38423 0.34378,-0.12134 0.54601,-0.30334 0.20223,-0.18201 1.27403,-0.52579 l 1.21336,-0.36401 q 0.74824,-0.24267 1.03136,-1.45603 -0.0404,-0.0404 -0.36401,-0.54602 0,-0.0404 -0.30334,-0.0404 -0.0809,-0.0809 -0.28312,-0.18201 -0.20223,-0.12133 -0.46512,-0.38423 l -0.24267,0.0809 q -0.28312,-0.16178 -0.66735,-0.24267 -0.36401,-0.10111 -0.78869,-0.42468 -0.16178,0.0809 -0.20222,0.0809 -0.0404,0 -0.4449,-0.20222 l -0.54601,-0.24267 h -0.32357 l -0.14156,-0.0404 q -0.12133,-0.14156 -0.20222,-0.14156 l -0.20223,0.0404 q -0.0809,0.0404 -0.20223,0.0404 h -0.34378 q -0.0405,0 -0.32357,-0.20222 h -0.66734 l -0.36401,0.0809 q -0.0809,0 -0.2629,-0.16179 l -0.36401,0.0809 -0.36401,-0.16179 -0.54601,0.0809 q -0.16178,-0.12133 -0.24267,-0.12133 l -1.61782,0.16178 q -0.0809,0 -0.14155,-0.0809 -0.0607,-0.0809 -0.20223,-0.12134 -0.12134,-0.0404 -0.28312,-0.16178 -0.42468,0.24267 -0.82913,0.24267 l -0.6269,-0.0809 -0.12134,0.0405 h -0.0809 q -0.0404,0 -0.36401,-0.0809 0,0.0809 -0.0404,0.12133 l -0.30334,-0.0809 -1.11225,0.20223 h -0.0405 l -0.20222,-0.0404 q -0.0809,0 -0.24268,0.0607 -0.14155,0.0607 -0.22245,0.0607 l -0.44489,-0.0404 -0.34379,0.0809 -0.48534,-0.0404 -0.42468,0.30334 h -0.0809 q -0.0809,0 -0.18201,-0.0607 -0.10111,-0.0809 -0.14156,-0.0809 l -0.30334,0.0607 -0.24267,-0.0607 q -0.0809,0 -0.32356,0.38423 0,0.0404 -0.0809,0.0404 h -0.0404 l -0.30334,-0.0809 q -0.0809,0 -0.32356,0.28312 -0.38423,0.14155 -0.74824,0.30334 -0.28312,0.40445 -0.48534,0.48534 z m 1.3347,9.56533 h -0.50557 q -0.12134,0 -0.4449,0.24268 -0.30334,0.22245 -0.30334,0.30334 0,0.0809 0.46512,0.46512 0.48535,0.36401 0.60668,0.36401 0.36401,0 0.86958,-1.65826 l -0.20223,0.0809 -0.24267,-0.0405 q -0.24267,0.20223 -0.24267,0.24267 z"
         style="font-style:normal;font-variant:normal;font-weight:normal;font-stretch:normal;font-family:'Rage Italic';-inkscape-font-specification:'Rage Italic, ';fill:#ffffff;fill-opacity:1;stroke:none;stroke-width:1.0354017;stroke-opacity:1"
         id="path1580" />
    </g>
  </g>
</svg>
