<?xml version="1.0" encoding="UTF-8" standalone="no"?>
<!-- Created with Inkscape (http://www.inkscape.org/) -->

<svg
   xmlns:dc="http://purl.org/dc/elements/1.1/"
   xmlns:cc="http://creativecommons.org/ns#"
   xmlns:rdf="http://www.w3.org/1999/02/22-rdf-syntax-ns#"
   xmlns:svg="http://www.w3.org/2000/svg"
   xmlns="http://www.w3.org/2000/svg"
   xmlns:sodipodi="http://sodipodi.sourceforge.net/DTD/sodipodi-0.dtd"
   xmlns:inkscape="http://www.inkscape.org/namespaces/inkscape"
   width="143.46663mm"
   height="171.29448mm"
   viewBox="0 0 143.46663 171.29448"
   version="1.1"
   id="svg894"
   inkscape:version="0.92.3 (2405546, 2018-03-11)"
   sodipodi:docname="logo.svg">
  <defs
     id="defs888">
    <inkscape:path-effect
       effect="bspline"
       id="path-effect1557"
       is_visible="true"
       weight="33.333333"
       steps="2"
       helper_size="0"
       apply_no_weight="true"
       apply_with_weight="true"
       only_selected="false" />
    <inkscape:path-effect
       effect="bspline"
       id="path-effect1536"
       is_visible="true"
       weight="33.333333"
       steps="2"
       helper_size="0"
       apply_no_weight="true"
       apply_with_weight="true"
       only_selected="false" />
    <inkscape:path-effect
       effect="bspline"
       id="path-effect1515"
       is_visible="true"
       weight="33.333333"
       steps="2"
       helper_size="0"
       apply_no_weight="true"
       apply_with_weight="true"
       only_selected="false" />
    <inkscape:path-effect
       effect="bspline"
       id="path-effect1511"
       is_visible="true"
       weight="33.333333"
       steps="2"
       helper_size="0"
       apply_no_weight="true"
       apply_with_weight="true"
       only_selected="false" />
    <inkscape:path-effect
       effect="skeletal"
       id="path-effect1491"
       is_visible="true"
       pattern="m -133.87767,-20.731517 c 0,-2.76 2.24,-5 5,-5 2.76,0 5,2.24 5,5 0,2.76 -2.24,5 -5,5 -2.76,0 -5,-2.24 -5,-5 z"
       copytype="single_stretched"
       prop_scale="0.26458333"
       scale_y_rel="false"
       spacing="0"
       normal_offset="0"
       tang_offset="0"
       prop_units="false"
       vertical_pattern="false"
       fuse_tolerance="0" />
    <inkscape:path-effect
       effect="skeletal"
       id="path-effect1479"
       is_visible="true"
       pattern="M 0,5 C 0,2.24 2.24,0 5,0 7.76,0 10,2.24 10,5 10,7.76 7.76,10 5,10 2.24,10 0,7.76 0,5 Z"
       copytype="single_stretched"
       prop_scale="0.26458333"
       scale_y_rel="false"
       spacing="0"
       normal_offset="0"
       tang_offset="0"
       prop_units="false"
       vertical_pattern="false"
       fuse_tolerance="0" />
    <inkscape:path-effect
       effect="bspline"
       id="path-effect1477"
       is_visible="true"
       weight="33.333333"
       steps="2"
       helper_size="0"
       apply_no_weight="true"
       apply_with_weight="true"
       only_selected="false" />
    <inkscape:path-effect
       effect="skeletal"
       id="path-effect1469"
       is_visible="true"
       pattern="m -3.513143,4.2416955 c 0,-2.76 2.24,-5.00000002 5,-5.00000002 2.76,0 5,2.24000002 5,5.00000002 0,2.76 -2.24,5 -5,5 -2.76,0 -5,-2.24 -5,-5 z"
       copytype="single_stretched"
       prop_scale="0.26458333"
       scale_y_rel="false"
       spacing="0"
       normal_offset="0"
       tang_offset="0"
       prop_units="false"
       vertical_pattern="false"
       fuse_tolerance="0" />
    <inkscape:path-effect
       effect="bspline"
       id="path-effect1467"
       is_visible="true"
       weight="33.333333"
       steps="2"
       helper_size="0"
       apply_no_weight="true"
       apply_with_weight="true"
       only_selected="false" />
    <inkscape:path-effect
       effect="bspline"
       id="path-effect1451"
       is_visible="true"
       weight="33.333333"
       steps="2"
       helper_size="0"
       apply_no_weight="true"
       apply_with_weight="true"
       only_selected="false" />
  </defs>
  <sodipodi:namedview
     id="base"
     pagecolor="#ffffff"
     bordercolor="#666666"
     borderopacity="1.0"
     inkscape:pageopacity="0.0"
     inkscape:pageshadow="2"
     inkscape:zoom="0.70710678"
     inkscape:cx="76.940937"
     inkscape:cy="260.38637"
     inkscape:document-units="mm"
     inkscape:current-layer="layer1"
     showgrid="true"
     inkscape:window-width="1366"
     inkscape:window-height="705"
     inkscape:window-x="-8"
     inkscape:window-y="-8"
     inkscape:window-maximized="1"
     width="210mm">
    <inkscape:grid
       type="xygrid"
       id="grid1447"
       originx="-34.588064"
       originy="-18.449488" />
  </sodipodi:namedview>
  <metadata
     id="metadata891">
    <rdf:RDF>
      <cc:Work
         rdf:about="">
        <dc:format>image/svg+xml</dc:format>
        <dc:type
           rdf:resource="http://purl.org/dc/dcmitype/StillImage" />
        <dc:title></dc:title>
      </cc:Work>
    </rdf:RDF>
  </metadata>
  <g
     inkscape:label="Camada 1"
     inkscape:groupmode="layer"
     id="layer1"
     transform="translate(-34.588064,-107.25603)">
    <g
       id="g857"
       transform="rotate(-175.90719,109.57528,171.47034)">
      <g
         id="g874"
         transform="translate(2.1017027,1.4888497)">
        <path
           style="fill:#ce0080;fill-opacity:1;stroke:none;stroke-width:0.26499999;stroke-miterlimit:4;stroke-dasharray:none;stroke-opacity:1"
           d="m 122.41732,226.75583 c 34.63454,-3.97157 59.4917,-35.26812 55.51989,-69.90264 -3.97183,-34.6343 -35.26827,-59.49116 -69.90257,-55.51936 -16.442147,1.5936 -27.345399,8.96189 -34.903026,19.44327 -5.343466,7.41064 -10.05512,15.70558 -9.299762,26.26192 0.680027,9.50352 6.977723,23.3741 22.056093,28.23624 11.453015,3.69311 16.309575,11.82028 18.158055,13.86547 6.69437,7.40678 11.65601,17.27815 11.5267,33.0388 0,0 3.58493,-1.94591 6.54501,-21.26014 2.33959,-11.32749 -3.24402,-13.2466 -2.71289,-23.65741 0.72638,-8.7082 0.41,-8.03653 4.96548,-17.08114 1.89044,-2.88537 2.32718,-2.93003 2.49961,-3.74876 -0.0391,-0.34051 -0.0792,-0.26648 -5.37779,-0.44857 -2.72918,-0.0938 -1.87016,-0.0518 -2.32231,-3.99473 2.17645,-4.24434 0.6918,-2.64967 -3.08076,-3.64147 2.57747,-1.05139 4.11536,-2.97269 0.86215,-4.09363 -3.01204,-0.71986 -5.25721,0.60287 -1.3143,0.15072 0.71388,-3.80718 1.5772,-11.20707 -2.9722,-14.30667 -7.02366,-3.18927 -16.453025,6.15901 -24.368882,8.12089 -7.459327,1.84872 -7.537152,-6.67623 -4.135772,-12.8416 30.120294,-36.531774 76.070934,6.80481 80.170594,35.69968 3.70608,32.32877 -21.15039,61.74026 -55.53998,65.71771 4.53031,0.4789 9.09914,0.46596 13.62666,-0.0386 z"
           id="path1442"
           inkscape:connector-curvature="0"
           sodipodi:nodetypes="cccscssccccccccccccccccc" />
        <path
           style="fill:#ce0080;fill-opacity:1;stroke:none;stroke-width:0.24913271px;stroke-linecap:butt;stroke-linejoin:miter;stroke-opacity:1"
           d="m 108.97241,223.65213 c 2.56832,-0.82715 1.99726,-11.25292 -1.02542,-18.07725 -3.07066,-6.93266 -5.93259,-16.6943 -14.234066,-22.57856 -8.301481,-5.88427 -22.042184,-7.89114 -28.450671,-16.87571 -6.408478,-8.98458 -8.189513,-18.18856 -5.276958,-28.33138 2.912555,-10.14283 10.518649,-21.22345 18.239868,-27.43549 7.721218,-6.21205 16.74555,-7.66755 14.027844,-7.60744 -2.717697,0.0601 -12.156256,3.85985 -21.393542,8.2627 -9.237296,4.40287 -17.423917,17.50766 -21.427911,26.3255 -4.003993,8.81784 -1.215581,25.35144 3.980497,34.48027 3.708467,6.51528 13.637385,11.13336 26.380819,16.9217 8.388985,3.81044 27.71277,16.06362 29.17954,34.91566 z"
           id="path1534"
           inkscape:connector-curvature="0"
           sodipodi:nodetypes="ccsssssssssc" />
        <path
           style="fill:#ce0080;fill-opacity:1;stroke:none;stroke-width:0.26458332px;stroke-linecap:butt;stroke-linejoin:miter;stroke-opacity:1"
           d="m 97.771611,213.57802 c -3.096156,-6.48721 -8.685441,-14.20399 -14.182489,-18.75357 -5.497048,-4.54957 -10.900925,-5.93124 -17.341987,-9.44923 -6.441062,-3.518 -13.91923,-9.17228 -17.941568,-15.95792 -4.022339,-6.78565 -4.588838,-14.70266 -4.778089,-20.43657 -0.18925,-5.73391 -0.0012,-9.28374 0.642445,-12.64583 0.643656,-3.36209 1.742782,-6.53514 0.86348,-3.37752 -0.879302,3.15762 -3.737238,12.6465 -3.97165,21.72595 -0.234412,9.07945 2.15452,17.75079 7.496366,24.44204 5.341847,6.69126 13.636739,11.40288 19.638046,14.95238 6.001307,3.54949 9.708789,5.9367 13.448032,8.76396 3.739243,2.82726 7.509666,6.09413 10.919832,10.79047 3.410165,4.69633 6.459838,10.82185 7.683221,11.25606 1.22338,0.43421 0.62052,-4.823 -2.475639,-11.31022 z"
           id="path1555"
           inkscape:connector-curvature="0"
           inkscape:path-effect="#path-effect1557"
           inkscape:original-d="m 100.26487,214.80777 c -5.589707,-7.71675 -11.178993,-15.43353 -16.768396,-23.15109 -5.404482,-1.38148 -10.80836,-2.76314 -16.212185,-4.14514 -7.478442,-5.65402 -14.95661,-11.3083 -22.434563,-16.96289 -0.566753,-7.91698 -1.133259,-15.83399 -1.69955,-23.75177 0.187821,-3.55007 0.375862,-7.0999 0.564186,-10.65076 1.099083,-3.17336 2.198211,-6.34641 3.297693,-9.52006 -2.858102,9.4889 -5.716038,18.97778 -8.57354,28.46576 2.388526,8.67104 4.777458,17.34238 7.166563,26.01318 8.29471,4.71194 16.589601,9.42357 24.884807,14.13496 3.707386,2.38759 7.414869,4.7748 11.12286,7.1619 3.77045,3.26739 7.540876,6.53426 11.3117,9.80099 3.049437,6.12582 6.099117,12.25133 9.149025,18.37655 -0.6031,-5.25692 -1.20596,-10.51413 -1.8086,-15.77163 z"
           sodipodi:nodetypes="cccccccccccccc" />
      </g>
    </g>
    <g
       aria-label="Studio R"
       style="font-style:normal;font-weight:normal;font-size:36.600914px;line-height:1.25;font-family:sans-serif;letter-spacing:0px;word-spacing:0px;fill:#ffffff;fill-opacity:1;stroke:none;stroke-width:0.91502285"
       id="text33">
      <path
         d="m 65.726546,265.44755 q -0.446788,-0.82209 -1.340365,-1.48334 -0.893577,-0.66124 -2.019484,-1.05442 -1.108036,-0.41104 -2.3233,-0.60763 -3.610051,-0.53615 -6.737571,-2.34117 -0.268073,-0.14297 -0.571889,-0.60763 -0.303816,-0.46466 -0.303816,-0.89358 0,-1.5727 0.518274,-3.14539 0.536146,-1.59057 1.358237,-2.48415 1.322494,-1.48333 4.75383,-2.59137 3.449207,-1.10803 7.756248,-1.10803 2.573502,0 3.967482,0.39317 1.411852,0.39317 1.411852,1.21526 0,1.34037 -0.375303,2.0731 -0.35743,0.73274 -0.786347,0.98294 -0.411046,0.23233 -1.465467,0.64337 -1.125907,0.39318 -1.965869,0.82209 -0.822091,0.42892 -1.411852,0.82209 -0.58976,0.39318 -0.732733,0.39318 -0.178715,0 -0.178715,-0.14297 0,-0.30382 0.625504,-0.91145 0.643375,-0.62551 1.572695,-1.09017 0.982935,-0.51827 0.982935,-0.66124 0,-0.23233 -1.090164,-0.23233 -3.306235,0 -6.112067,0.58976 -2.805831,0.58976 -4.432142,1.55482 -1.608438,0.96506 -1.608438,1.96587 0,0.6255 0.661247,0.89358 0.679118,0.2502 2.966675,0.85783 2.287558,0.60763 4.092583,1.39398 2.591373,1.10804 3.842381,2.30543 1.251008,1.19739 1.251008,2.68073 0,1.01868 -0.500403,2.05523 -0.482532,1.01868 -1.429723,1.87651 -0.947192,0.85783 -2.180328,1.41185 -1.054421,0.44679 -2.66286,0.83996 -1.590567,0.39318 -3.467078,0.60764 -1.858641,0.23233 -3.556437,0.23233 -3.127519,0 -5.039774,-0.58976 -1.894383,-0.58976 -1.894383,-1.78716 0,-0.53614 0.643375,-1.66205 0.643375,-1.14378 1.519081,-1.53695 0.768476,-0.30382 1.483338,-0.33956 0.714861,-0.0536 0.714861,0.16084 0,0.0536 -0.05361,0.10723 -0.05362,0.0536 -0.125101,0.0894 -0.07149,0.0357 -0.142972,0.0715 -0.357431,0.14298 -0.589761,0.23233 -0.214459,0.0715 -0.357431,0.16085 -0.125101,0.0715 -0.125101,0.21446 0,0.3753 3.699409,0.3753 3.216877,0 5.272104,-0.23233 2.055227,-0.23233 3.627923,-0.83996 1.572695,-0.60764 2.859446,-1.67993 z"
         style="font-style:normal;font-variant:normal;font-weight:normal;font-stretch:normal;font-family:'Brush Script MT';-inkscape-font-specification:'Brush Script MT';stroke-width:0.91502285;fill:#ffffff;fill-opacity:1"
         id="path35" />
      <path
         d="m 77.164332,255.70756 h 0.768476 q 0.947191,-1.69779 1.715668,-2.39478 0.768476,-0.71487 1.751411,-0.71487 0.982934,0 0.982934,0.44679 0,0.21446 -0.768476,1.16165 -0.768476,0.94719 -1.16165,1.59057 0.607632,0.0715 1.072292,0.1251 0.482532,0.0536 0.750605,0.0894 -1.018678,1.89438 -2.55563,3.87812 -0.500403,-0.0357 -0.839963,-0.0536 -0.339559,-0.0357 -0.69699,-0.0536 -0.339559,-0.0357 -0.839962,-0.0715 -0.965063,1.55482 -1.62631,2.78796 -0.643376,1.21526 -1.000806,2.23394 -0.33956,1.01868 -0.33956,1.93013 0,1.23313 0.982935,1.23313 0.679119,0 1.769282,-0.71486 1.108036,-0.73273 2.948805,-2.23394 v 1.19739 q -4.825316,5.23636 -7.130745,5.23636 -0.804219,0 -1.304622,-0.6255 -0.482532,-0.6255 -0.482532,-1.60844 0,-0.66125 0.268073,-1.5727 0.285945,-0.91144 1.000806,-2.75221 -0.250201,0.21446 -0.482531,0.42891 -0.214459,0.19659 -0.411046,0.37531 -0.178715,0.16084 -0.393173,0.35743 -0.214459,0.17871 -0.428917,0.3753 v -1.23314 q 1.876511,-1.57269 4.539371,-5.5223 -0.268073,-0.0179 -0.500403,-0.0179 -0.23233,-0.0179 -0.554018,-0.0179 -1.054421,0 -1.572696,0.14297 -0.214458,0.0536 -0.411045,0.1251 -0.178715,0.0536 -0.250202,0.0536 -0.07149,0 -0.07149,-0.10723 0,-0.58976 0.732733,-1.76928 0.589761,-1.00081 1.108036,-1.48334 0.536146,-0.48253 1.286751,-0.64337 0.768476,-0.17872 2.144585,-0.17872 z"
         style="font-style:normal;font-variant:normal;font-weight:normal;font-stretch:normal;font-family:'Brush Script MT';-inkscape-font-specification:'Brush Script MT';stroke-width:0.91502285;fill:#ffffff;fill-opacity:1"
         id="path37" />
      <path
         d="m 88.459147,263.76763 q -2.591374,3.43133 -3.949611,4.87893 -1.340365,1.44759 -2.198199,1.44759 -0.679119,0 -1.251008,-0.55402 -0.571889,-0.57188 -0.893577,-1.51908 -0.303816,-0.96506 -0.303816,-2.05522 0,-0.71487 0.125101,-1.28675 0.142972,-0.57189 0.518274,-1.25101 0.375303,-0.69699 0.982935,-1.50121 0.625504,-0.80422 1.519081,-1.8229 0.536146,-0.6255 0.893577,-1.05442 0.375302,-0.42892 0.714862,-0.57189 0.35743,-0.16084 1.143778,-0.16084 0.57189,0 1.090164,0.16084 0.518275,0.14297 0.518275,0.30382 0,0.32168 -0.536146,1.16165 -0.518275,0.83996 -1.697797,2.05522 -1.16165,1.1974 -2.698602,2.35905 -0.339559,1.05442 -0.339559,1.60844 0,0.76847 0.58976,0.76847 0.214459,0 0.714862,-0.35743 0.500403,-0.3753 1.679925,-1.41185 1.197393,-1.05442 2.144585,-1.85864 0.69699,-0.60763 1.608438,-1.80503 0.92932,-1.21526 1.501209,-1.82289 1.322494,-1.39398 1.805026,-1.80503 0.482532,-0.42892 0.92932,-0.42892 0.428917,0 0.571889,0.26808 0.160844,0.26807 0.160844,1.09016 0,0.3753 -0.07149,0.60763 -0.07149,0.23233 -0.303816,0.60764 -0.214459,0.35743 -0.893577,1.34036 -0.679119,0.98294 -1.608439,2.3233 -0.500403,0.71486 -0.875705,1.5727 -0.375302,0.83996 -0.375302,1.26888 0,0.92932 0.732733,0.92932 0.607632,0 1.411851,-0.50041 0.80422,-0.5004 2.466273,-1.80502 v 1.19739 q -2.09097,1.93013 -3.091777,2.80583 -1.000806,0.87571 -1.733539,1.3225 -0.732733,0.44679 -1.39398,0.44679 -1.501209,0 -1.501209,-1.78716 0,-0.67912 0.446788,-1.8229 0.446789,-1.16165 1.447595,-3.34197 z"
         style="font-style:normal;font-variant:normal;font-weight:normal;font-stretch:normal;font-family:'Brush Script MT';-inkscape-font-specification:'Brush Script MT';stroke-width:0.91502285;fill:#ffffff;fill-opacity:1"
         id="path39" />
      <path
         d="m 102.29172,265.01863 q -1.5727,1.78716 -2.823707,3.03817 -1.233136,1.251 -2.019484,1.87651 -0.768476,0.60763 -1.054421,0.60763 -0.46466,0 -1.054421,-0.7506 -0.571889,-0.75061 -0.982934,-1.91226 -0.411046,-1.16165 -0.411046,-2.35904 0,-1.73354 1.679925,-3.48495 1.679925,-1.76928 3.82451,-2.93094 2.144588,-1.16165 3.216878,-1.16165 0.8757,0 1.71567,1.10804 1.37611,-2.87732 2.60924,-5.11126 1.25101,-2.23394 2.09097,-3.32411 0.83996,-1.09016 1.19739,-1.09016 0.39318,0 0.71487,0.39317 0.33956,0.37531 0.33956,0.85784 0,0.92932 -1.35824,3.199 -1.35824,2.25182 -2.68073,4.3964 -1.3225,2.14459 -2.26969,4.23556 -0.94719,2.0731 -0.94719,3.84238 0,1.60844 1.03655,1.60844 0.6255,0 1.5727,-0.69699 0.94719,-0.71487 2.6986,-2.37692 v 1.30462 q -3.86025,4.98616 -5.95122,4.98616 -0.83997,0 -1.21527,-0.64337 -0.35743,-0.64338 -0.35743,-1.91226 0,-1.71566 0.42892,-3.69941 z m 1.32249,-4.36065 q -1.59057,0.53615 -3.735151,1.73354 -2.144585,1.17952 -2.591374,1.62631 -0.393174,0.35743 -0.69699,1.34036 -0.303816,0.98294 -0.303816,1.48334 0,0.30382 0.178715,0.5004 0.178716,0.19659 0.446789,0.19659 0.250202,0 0.571889,-0.21446 0.321688,-0.21446 1.018678,-0.83996 0.714862,-0.6255 0.92932,-0.80422 0.303816,-0.26807 1.34037,-1.14378 1.05442,-0.89357 1.53695,-1.39398 0.48253,-0.5004 0.82209,-1.10803 0.33956,-0.62551 0.48253,-1.37611 z"
         style="font-style:normal;font-variant:normal;font-weight:normal;font-stretch:normal;font-family:'Brush Script MT';-inkscape-font-specification:'Brush Script MT';stroke-width:0.91502285;fill:#ffffff;fill-opacity:1"
         id="path41" />
      <path
         d="m 116.74979,256.99431 q -0.44679,0 -0.85783,-0.33956 -0.39318,-0.33956 -0.39318,-0.85783 0,-0.78635 0.75061,-1.75141 0.7506,-0.96506 1.55482,-0.96506 0.53615,0 0.89358,0.33956 0.35743,0.32168 0.35743,0.94719 0,0.76847 -0.73273,1.69779 -0.73273,0.92932 -1.5727,0.92932 z m 1.21527,7.98858 v 1.30462 q -1.73354,2.23395 -3.23475,3.37773 -1.50121,1.1259 -2.55563,1.1259 -1.46547,0 -2.18033,-1.53695 -0.71486,-1.53695 -0.71486,-3.35985 0,-0.69699 0.14297,-1.32249 0.14297,-0.64338 0.33956,-1.05442 0.19659,-0.41105 0.73273,-1.28676 2.53776,-3.94961 4.6466,-3.94961 1.09017,0 1.09017,0.83997 0,0.57189 -0.71486,1.78715 -0.69699,1.21527 -1.25101,1.73354 -1.55483,1.50121 -2.03736,2.09097 -0.46466,0.58976 -0.46466,1.34037 0,0.64337 0.48253,1.07229 0.48254,0.42891 1.25101,0.42891 0.83996,0 1.84077,-0.60763 1.01868,-0.6255 2.62712,-1.98374 z"
         style="font-style:normal;font-variant:normal;font-weight:normal;font-stretch:normal;font-family:'Brush Script MT';-inkscape-font-specification:'Brush Script MT';stroke-width:0.91502285;fill:#ffffff;fill-opacity:1"
         id="path43" />
      <path
         d="m 129.27774,264.94715 v 1.19739 q -1.17952,1.07229 -1.89438,1.42972 -0.71486,0.35744 -2.05523,0.28595 -2.3233,2.75222 -4.09258,2.75222 -1.00081,0 -1.8229,-0.66125 -0.82209,-0.66125 -1.32249,-1.80503 -0.48253,-1.14377 -0.48253,-2.55563 0,-1.14377 0.7506,-2.53775 0.76848,-1.39398 1.96587,-2.59138 1.21526,-1.21526 2.59137,-1.948 1.37611,-0.7506 2.55563,-0.7506 0.83997,0 1.3225,0.26807 0.48253,0.2502 0.48253,0.71486 0,0.35743 -0.41105,0.8221 0.67912,0.14297 0.92932,0.48253 0.25021,0.32168 0.25021,1.19739 0,0.85783 -0.41105,2.16246 -0.39317,1.30462 -1.09016,2.4484 l 0.32168,0.32168 h 0.26808 q 0.30381,0 0.58976,-0.14297 0.30381,-0.16084 0.53614,-0.32169 0.23233,-0.17871 1.01868,-0.76847 z m -3.68154,-4.70022 q -1.48333,0.89358 -2.53775,1.62631 -1.05443,0.71487 -1.78716,1.46547 -0.73273,0.73273 -0.98293,1.48334 -0.44679,2.00161 -0.44679,2.16245 0,1.17953 1.64418,1.17953 0.76848,0 2.5735,-1.3225 -0.30381,-0.83996 -0.30381,-1.60844 0,-1.1259 0.46466,-2.28755 0.46466,-1.17953 1.3761,-2.69861 z"
         style="font-style:normal;font-variant:normal;font-weight:normal;font-stretch:normal;font-family:'Brush Script MT';-inkscape-font-specification:'Brush Script MT';stroke-width:0.91502285;fill:#ffffff;fill-opacity:1"
         id="path45" />
      <path
         d="m 153.10051,268.96825 -6.73757,-3.28837 q -2.5735,3.5207 -2.87732,4.6466 -0.21446,0.80422 -0.96506,1.34037 -0.73274,0.55402 -1.05442,0.55402 -0.91145,0 -0.91145,-0.69699 0,-0.39318 1.07229,-2.25182 1.09016,-1.87651 2.98455,-4.41427 -1.05442,-0.42892 -1.30463,-0.57189 -0.2502,-0.14297 -0.19658,-0.53614 0.0536,-0.41105 0.6255,-1.26888 0.5004,-0.75061 0.75061,-1.00081 0.2502,-0.26807 0.58976,-0.41105 0.33956,-0.16084 0.71486,-0.21445 0.3753,-0.0536 2.10884,-0.26808 1.41185,-1.91225 3.05603,-4.12832 1.66206,-2.21607 2.59138,-3.44921 -2.80584,0.3753 -3.91387,0.6255 -1.17952,0.23233 -1.98374,0.39318 -0.78635,0.14297 -1.10804,0.26807 -0.32168,0.10723 -0.32168,0.32169 0,0.19659 0.39317,0.26807 0.39317,0.0715 0.98293,0.0715 0.60764,0 0.92932,0.0536 0.33956,0.0358 0.33956,0.19659 0,0.17871 -0.44679,0.21446 -0.42891,0.0179 -2.4484,0.10723 -1.14377,0.0357 -1.93012,0.0715 -0.76848,0.0357 -1.0723,0.0357 -0.41104,0 -0.64337,-0.25021 -0.23233,-0.2502 -0.23233,-0.66124 0,-0.30382 0.33956,-1.12591 0.33956,-0.82209 0.96506,-1.66205 0.62551,-0.83996 1.42973,-1.30463 0.91144,-0.55401 2.8237,-1.10803 1.93012,-0.57189 4.2713,-0.91145 2.35904,-0.35743 4.66447,-0.35743 1.39398,0 2.71647,0.16084 1.34037,0.16085 2.41266,0.39318 1.09016,0.23233 1.71567,0.46466 1.62631,0.53614 2.48414,1.62631 0.87571,1.09016 0.87571,2.39478 0,1.26888 -0.44679,2.48415 -0.42892,1.19739 -1.34037,2.23394 -0.89357,1.01868 -2.16245,1.66205 -1.03655,0.53615 -3.14539,1.09017 -2.10885,0.55402 -5.09339,0.98293 -2.98455,0.42892 -6.66609,0.62551 2.75222,0.96506 5.12913,1.94799 2.39479,0.96507 4.0211,1.73354 1.64418,0.75061 2.5735,1.23314 1.30463,0.67912 1.6978,0.98294 0.39317,0.30381 0.51827,0.78634 0.12511,0.48253 0.12511,1.59057 0,1.25101 -0.16085,1.84077 -0.14297,0.60763 -0.64337,0.60763 -0.16085,0 -0.85784,-0.35743 -0.67912,-0.33956 -1.89438,-1.01868 -1.21527,-0.66124 -2.21607,-1.17952 -0.98294,-0.53615 -3.12752,-1.57269 z m 1.57269,-16.13801 q 0.0179,0.12511 0.0179,0.23233 0.0179,0.10723 0.0179,0.30382 0,0.5004 -0.32169,1.16165 -0.30382,0.64338 -0.80422,1.34037 -0.48253,0.67911 -1.46547,1.96587 -0.96506,1.26887 -1.78715,2.34117 3.75302,-0.71486 6.39801,-1.37611 2.66286,-0.66125 4.37853,-1.3225 1.71567,-0.67911 2.5735,-1.41185 0.87571,-0.7506 0.87571,-1.55482 0,-0.89358 -1.8229,-1.39398 -1.80503,-0.51828 -4.43214,-0.51828 -0.53615,0 -1.14378,0.0357 -0.58976,0.0179 -1.42973,0.10723 -0.82209,0.0715 -1.05442,0.0893 z"
         style="font-style:normal;font-variant:normal;font-weight:normal;font-stretch:normal;font-family:'Brush Script MT';-inkscape-font-specification:'Brush Script MT';stroke-width:0.91502285;fill:#ffffff;fill-opacity:1"
         id="path47" />
    </g>
  </g>
</svg>
