<?xml version="1.0" encoding="UTF-8" standalone="no"?>
<!-- Created with Inkscape (http://www.inkscape.org/) -->

<svg
   xmlns:dc="http://purl.org/dc/elements/1.1/"
   xmlns:cc="http://creativecommons.org/ns#"
   xmlns:rdf="http://www.w3.org/1999/02/22-rdf-syntax-ns#"
   xmlns:svg="http://www.w3.org/2000/svg"
   xmlns="http://www.w3.org/2000/svg"
   xmlns:sodipodi="http://sodipodi.sourceforge.net/DTD/sodipodi-0.dtd"
   xmlns:inkscape="http://www.inkscape.org/namespaces/inkscape"
   width="143.46663mm"
   height="171.29448mm"
   viewBox="0 0 143.46663 171.29448"
   version="1.1"
   id="svg894"
   inkscape:version="0.92.3 (2405546, 2018-03-11)"
   sodipodi:docname="logo.svg">
  <defs
     id="defs888">
    <inkscape:path-effect
       effect="bspline"
       id="path-effect1557"
       is_visible="true"
       weight="33.333333"
       steps="2"
       helper_size="0"
       apply_no_weight="true"
       apply_with_weight="true"
       only_selected="false" />
    <inkscape:path-effect
       effect="bspline"
       id="path-effect1536"
       is_visible="true"
       weight="33.333333"
       steps="2"
       helper_size="0"
       apply_no_weight="true"
       apply_with_weight="true"
       only_selected="false" />
    <inkscape:path-effect
       effect="bspline"
       id="path-effect1515"
       is_visible="true"
       weight="33.333333"
       steps="2"
       helper_size="0"
       apply_no_weight="true"
       apply_with_weight="true"
       only_selected="false" />
    <inkscape:path-effect
       effect="bspline"
       id="path-effect1511"
       is_visible="true"
       weight="33.333333"
       steps="2"
       helper_size="0"
       apply_no_weight="true"
       apply_with_weight="true"
       only_selected="false" />
    <inkscape:path-effect
       effect="skeletal"
       id="path-effect1491"
       is_visible="true"
       pattern="m -133.87767,-20.731517 c 0,-2.76 2.24,-5 5,-5 2.76,0 5,2.24 5,5 0,2.76 -2.24,5 -5,5 -2.76,0 -5,-2.24 -5,-5 z"
       copytype="single_stretched"
       prop_scale="0.26458333"
       scale_y_rel="false"
       spacing="0"
       normal_offset="0"
       tang_offset="0"
       prop_units="false"
       vertical_pattern="false"
       fuse_tolerance="0" />
    <inkscape:path-effect
       effect="skeletal"
       id="path-effect1479"
       is_visible="true"
       pattern="M 0,5 C 0,2.24 2.24,0 5,0 7.76,0 10,2.24 10,5 10,7.76 7.76,10 5,10 2.24,10 0,7.76 0,5 Z"
       copytype="single_stretched"
       prop_scale="0.26458333"
       scale_y_rel="false"
       spacing="0"
       normal_offset="0"
       tang_offset="0"
       prop_units="false"
       vertical_pattern="false"
       fuse_tolerance="0" />
    <inkscape:path-effect
       effect="bspline"
       id="path-effect1477"
       is_visible="true"
       weight="33.333333"
       steps="2"
       helper_size="0"
       apply_no_weight="true"
       apply_with_weight="true"
       only_selected="false" />
    <inkscape:path-effect
       effect="skeletal"
       id="path-effect1469"
       is_visible="true"
       pattern="m -3.513143,4.2416955 c 0,-2.76 2.24,-5.00000002 5,-5.00000002 2.76,0 5,2.24000002 5,5.00000002 0,2.76 -2.24,5 -5,5 -2.76,0 -5,-2.24 -5,-5 z"
       copytype="single_stretched"
       prop_scale="0.26458333"
       scale_y_rel="false"
       spacing="0"
       normal_offset="0"
       tang_offset="0"
       prop_units="false"
       vertical_pattern="false"
       fuse_tolerance="0" />
    <inkscape:path-effect
       effect="bspline"
       id="path-effect1467"
       is_visible="true"
       weight="33.333333"
       steps="2"
       helper_size="0"
       apply_no_weight="true"
       apply_with_weight="true"
       only_selected="false" />
    <inkscape:path-effect
       effect="bspline"
       id="path-effect1451"
       is_visible="true"
       weight="33.333333"
       steps="2"
       helper_size="0"
       apply_no_weight="true"
       apply_with_weight="true"
       only_selected="false" />
  </defs>
  <sodipodi:namedview
     id="base"
     pagecolor="#ffffff"
     bordercolor="#666666"
     borderopacity="1.0"
     inkscape:pageopacity="0.0"
     inkscape:pageshadow="2"
     inkscape:zoom="0.70710678"
     inkscape:cx="76.940937"
     inkscape:cy="373.52346"
     inkscape:document-units="mm"
     inkscape:current-layer="g857"
     showgrid="true"
     inkscape:window-width="1366"
     inkscape:window-height="705"
     inkscape:window-x="-8"
     inkscape:window-y="-8"
     inkscape:window-maximized="1"
     width="210mm">
    <inkscape:grid
       type="xygrid"
       id="grid1447"
       originx="-34.588064"
       originy="-18.449488" />
  </sodipodi:namedview>
  <metadata
     id="metadata891">
    <rdf:RDF>
      <cc:Work
         rdf:about="">
        <dc:format>image/svg+xml</dc:format>
        <dc:type
           rdf:resource="http://purl.org/dc/dcmitype/StillImage" />
        <dc:title />
      </cc:Work>
    </rdf:RDF>
  </metadata>
  <g
     inkscape:label="Camada 1"
     inkscape:groupmode="layer"
     id="layer1"
     transform="translate(-34.588064,-107.25603)">
    <g
       id="g857"
       transform="rotate(-175.90719,109.57528,171.47034)">
      <g
         id="g874"
         transform="translate(2.1017027,1.4888497)">
        <path
           style="fill:#ce0080;fill-opacity:1;stroke:none;stroke-width:0.26499999;stroke-miterlimit:4;stroke-dasharray:none;stroke-opacity:1"
           d="m 122.41732,226.75583 c 34.63454,-3.97157 59.4917,-35.26812 55.51989,-69.90264 -3.97183,-34.6343 -35.26827,-59.49116 -69.90257,-55.51936 -16.442147,1.5936 -27.345399,8.96189 -34.903026,19.44327 -5.343466,7.41064 -10.05512,15.70558 -9.299762,26.26192 0.680027,9.50352 6.977723,23.3741 22.056093,28.23624 11.453015,3.69311 16.309575,11.82028 18.158055,13.86547 6.69437,7.40678 11.65601,17.27815 11.5267,33.0388 0,0 3.58493,-1.94591 6.54501,-21.26014 2.33959,-11.32749 -3.24402,-13.2466 -2.71289,-23.65741 0.72638,-8.7082 0.41,-8.03653 4.96548,-17.08114 1.89044,-2.88537 2.32718,-2.93003 2.49961,-3.74876 -0.0391,-0.34051 -0.0792,-0.26648 -5.37779,-0.44857 -2.72918,-0.0938 -1.87016,-0.0518 -2.32231,-3.99473 2.17645,-4.24434 0.6918,-2.64967 -3.08076,-3.64147 2.57747,-1.05139 4.11536,-2.97269 0.86215,-4.09363 -3.01204,-0.71986 -5.25721,0.60287 -1.3143,0.15072 0.71388,-3.80718 1.5772,-11.20707 -2.9722,-14.30667 -7.02366,-3.18927 -16.453025,6.15901 -24.368882,8.12089 -7.459327,1.84872 -7.537152,-6.67623 -4.135772,-12.8416 30.120294,-36.531774 76.070934,6.80481 80.170594,35.69968 3.70608,32.32877 -21.15039,61.74026 -55.53998,65.71771 4.53031,0.4789 9.09914,0.46596 13.62666,-0.0386 z"
           id="path1442"
           inkscape:connector-curvature="0"
           sodipodi:nodetypes="cccscssccccccccccccccccc" />
        <path
           style="fill:#ce0080;fill-opacity:1;stroke:none;stroke-width:0.24913271px;stroke-linecap:butt;stroke-linejoin:miter;stroke-opacity:1"
           d="m 108.97241,223.65213 c 2.56832,-0.82715 1.99726,-11.25292 -1.02542,-18.07725 -3.07066,-6.93266 -5.93259,-16.6943 -14.234066,-22.57856 -8.301481,-5.88427 -22.042184,-7.89114 -28.450671,-16.87571 -6.408478,-8.98458 -8.189513,-18.18856 -5.276958,-28.33138 2.912555,-10.14283 10.518649,-21.22345 18.239868,-27.43549 7.721218,-6.21205 16.74555,-7.66755 14.027844,-7.60744 -2.717697,0.0601 -12.156256,3.85985 -21.393542,8.2627 -9.237296,4.40287 -17.423917,17.50766 -21.427911,26.3255 -4.003993,8.81784 -1.215581,25.35144 3.980497,34.48027 3.708467,6.51528 13.637385,11.13336 26.380819,16.9217 8.388985,3.81044 27.71277,16.06362 29.17954,34.91566 z"
           id="path1534"
           inkscape:connector-curvature="0"
           sodipodi:nodetypes="ccsssssssssc" />
        <path
           style="fill:#ce0080;fill-opacity:1;stroke:none;stroke-width:0.26458332px;stroke-linecap:butt;stroke-linejoin:miter;stroke-opacity:1"
           d="m 97.771611,213.57802 c -3.096156,-6.48721 -8.685441,-14.20399 -14.182489,-18.75357 -5.497048,-4.54957 -10.900925,-5.93124 -17.341987,-9.44923 -6.441062,-3.518 -13.91923,-9.17228 -17.941568,-15.95792 -4.022339,-6.78565 -4.588838,-14.70266 -4.778089,-20.43657 -0.18925,-5.73391 -0.0012,-9.28374 0.642445,-12.64583 0.643656,-3.36209 1.742782,-6.53514 0.86348,-3.37752 -0.879302,3.15762 -3.737238,12.6465 -3.97165,21.72595 -0.234412,9.07945 2.15452,17.75079 7.496366,24.44204 5.341847,6.69126 13.636739,11.40288 19.638046,14.95238 6.001307,3.54949 9.708789,5.9367 13.448032,8.76396 3.739243,2.82726 7.509666,6.09413 10.919832,10.79047 3.410165,4.69633 6.459838,10.82185 7.683221,11.25606 1.22338,0.43421 0.62052,-4.823 -2.475639,-11.31022 z"
           id="path1555"
           inkscape:connector-curvature="0"
           inkscape:path-effect="#path-effect1557"
           inkscape:original-d="m 100.26487,214.80777 c -5.589707,-7.71675 -11.178993,-15.43353 -16.768396,-23.15109 -5.404482,-1.38148 -10.80836,-2.76314 -16.212185,-4.14514 -7.478442,-5.65402 -14.95661,-11.3083 -22.434563,-16.96289 -0.566753,-7.91698 -1.133259,-15.83399 -1.69955,-23.75177 0.187821,-3.55007 0.375862,-7.0999 0.564186,-10.65076 1.099083,-3.17336 2.198211,-6.34641 3.297693,-9.52006 -2.858102,9.4889 -5.716038,18.97778 -8.57354,28.46576 2.388526,8.67104 4.777458,17.34238 7.166563,26.01318 8.29471,4.71194 16.589601,9.42357 24.884807,14.13496 3.707386,2.38759 7.414869,4.7748 11.12286,7.1619 3.77045,3.26739 7.540876,6.53426 11.3117,9.80099 3.049437,6.12582 6.099117,12.25133 9.149025,18.37655 -0.6031,-5.25692 -1.20596,-10.51413 -1.8086,-15.77163 z"
           sodipodi:nodetypes="cccccccccccccc" />
      </g>
    </g>
    <g
       id="g852">
      <path
         inkscape:connector-curvature="0"
         d="m 48.339504,267.77184 0.161782,-0.40446 0.52579,-0.58645 q 0.404454,-0.66735 0.667349,-0.78869 0.04044,-0.16178 0.121336,-0.30334 0.08089,-0.14156 0.121336,-0.4449 l 0.182004,-0.32356 q 0.08089,-0.0809 0.08089,-0.12134 0,-0.0404 -0.161782,-0.24267 l -0.101113,-0.42468 q 0,-0.16178 -1.071803,-1.0718 h -0.16178 l -1.456034,-0.70779 -0.08089,-0.20223 -0.161781,-0.0404 -0.202227,0.0809 h -0.04045 l -0.687572,-0.20223 q -0.82913,-0.22245 -1.092025,-0.34379 -0.04045,0.0404 -0.121336,0.0404 L 44.05229,261.5028 q -0.343786,-0.0809 -0.424676,-0.16178 -0.06067,-0.10111 -0.343786,-0.182 -0.262895,-0.10111 -0.343786,-0.18201 -0.08089,-0.0809 -0.323563,-0.0809 l -0.505567,0.12134 q 0,-0.0607 -0.566235,-0.20223 -0.08089,-0.20222 -0.121337,-0.20222 l -0.586458,0.0809 q -0.586458,-0.28312 -0.60668,-0.28312 -0.101114,0 -0.707794,-0.10111 -0.606681,-0.12134 -0.788685,-0.24268 -0.182005,-0.12133 -0.546013,-0.24267 l -0.121336,-0.12133 q -0.04044,-0.0404 -0.22245,-0.0809 h -0.364008 q -0.121336,0 -0.343786,-0.20222 -0.202227,-0.20223 -0.546012,-0.40446 -0.323563,-0.20222 -0.586458,-0.6269 -0.242673,-0.4449 -0.262895,-0.8898 -0.04045,-0.0404 -0.04045,-0.0809 l 0.121336,-0.64713 q 0.182005,-1.23358 1.152694,-2.28516 0.161781,-0.54601 0.667348,-0.78868 l 0.08089,-0.28312 q 0.586458,-0.50557 0.82913,-0.80891 0.262895,-0.30334 0.586458,-0.48534 0.323564,-0.20223 0.505568,-0.36401 l 0.364008,-0.16178 q -0.02022,-0.18201 0.889799,-0.84936 0.930243,-0.68757 1.435811,-0.88979 0.525789,-0.22245 0.687571,-0.32357 0.182004,-0.10111 1.011134,-0.30334 0.202227,-0.54601 0.647127,-0.54601 h 0.30334 l 0.404454,-0.40445 0.546012,0.0404 q 0.04045,-0.0404 0.22245,-0.24267 0.182004,-0.22245 0.606681,-0.22245 l 2.446945,-0.74824 h 0.161782 l 0.161781,0.0404 q 0.161782,0 0.404454,-0.28311 0.262895,-0.28312 0.667349,-0.28312 0.08089,0 0.30334,0.16178 0,0.0405 0.04044,0.0405 l 0.52579,-0.16179 0.626904,0.0405 0.788685,-0.20223 q 0.748239,0 1.314475,0.36401 l 0.04044,-0.0809 v -0.12134 q 0,-0.34378 0.384231,-0.34378 0.161782,0 0.202227,0.0809 l 0.242672,0.14156 H 55.2152 q 0.04044,0 0.52579,0.24267 0.30334,-0.20223 0.384231,-0.20223 0.384231,0 0.606681,0.32357 l 0.343785,-0.0404 q 0.161782,-0.16178 0.202227,-0.16178 0.121337,0 0.323563,0.32356 l 0.121337,0.0404 h 0.505567 q 0.04045,0 0.161781,0.12133 l 0.22245,0.18201 q 0.161781,0.16178 0.22245,0.26289 0.06067,0.10112 0.141558,0.18201 0.52579,-0.22245 0.566236,-0.22245 0.202227,0 0.30334,0.34378 0,0.28312 0.343786,0.56624 0.364008,0.26289 0.364008,0.56623 0.444899,0.20223 0.444899,0.64713 l 0.384231,0.99091 -0.08089,0.34379 q 0.161781,0.32356 0.161781,0.36401 l -0.08089,0.74824 0.08089,0.78868 q 0,0.6269 -0.586458,1.0718 -0.121336,0 -0.404454,0.18201 -0.262895,0.16178 -0.30334,0.16178 -0.52579,0 -0.707794,-0.24267 -0.161782,-0.2629 -0.323563,-0.38423 -0.161782,-0.12134 -0.161782,-0.32357 0,-0.46512 0.626904,-0.91002 0.283117,0 0.404454,-0.182 0,-0.42468 -0.182005,-0.58646 -0.182004,-0.16178 -0.404453,-0.4449 -0.202227,-0.28312 -0.4449,-0.4449 -0.242672,-0.182 -0.404453,-0.4449 -0.141559,-0.26289 -0.262895,-0.26289 l -0.283118,0.0404 -0.586458,-0.12133 q -0.930244,-0.12134 -1.698706,-0.42468 h -0.404454 l -1.092025,-0.16178 q -0.283118,0.12133 -0.808908,0.12133 l -1.334697,0.20223 -0.546013,-0.0404 q -0.06067,0 -1.112248,0.34378 l -0.202227,0.0405 h -0.546012 q -0.04045,0 -0.52579,0.20222 -0.465122,0.20223 -0.788685,0.28312 l -0.182004,0.0809 q -0.04045,0.0404 -0.121337,0.0404 l -0.323563,-0.0404 -1.779596,0.86958 -0.283118,-0.16178 q -0.343786,-0.16178 -0.384231,-0.16178 -0.283118,0 -0.283118,0.28311 l -0.04044,0.38423 q -0.262895,0.16179 -0.343786,0.24268 -0.08089,0.0809 -0.202227,0.12133 h -0.242658 q -0.242672,0 -0.465122,0.22245 -0.202227,0.20223 -0.364008,0.22245 -0.161782,0.0202 -0.465122,0.18201 -0.04045,0.0809 -0.323563,0.16178 -0.283118,0.0809 -0.444899,0.38423 -0.141559,0.28312 -0.343786,0.28312 l -0.404454,-0.0809 -0.22245,0.40445 q -0.424676,0.10111 -0.485344,0.12134 -0.262895,0.34378 -0.52579,0.52579 -0.262895,0.182 -0.52579,0.40445 -0.242672,0.20223 -0.364008,0.42468 -0.101114,0.22245 -0.323563,0.364 -0.22245,0.12134 -0.384232,0.52579 l -0.202226,0.20223 q -0.505568,0.42468 -0.505568,0.91002 0,0.34379 0.485345,0.50557 0.485344,0.16178 0.606681,0.26289 0.121336,0.10112 0.364008,0.10112 0.242672,0 0.465122,0.10111 0.222449,0.10111 0.748239,0.32356 0.101114,0.32357 0.202227,0.32357 0.04045,0 0.161782,-0.16178 0.121336,-0.16179 0.364008,-0.16179 0.262895,0 0.505568,0.32357 l 0.161781,-0.12134 h 0.08089 l 0.262895,0.0809 h 0.04044 l 0.242672,-0.12133 q 0.04045,-0.0405 0.121337,-0.0405 0.06067,0 0.626903,0.20223 h 0.04044 q 0.04045,0 0.323563,-0.0809 0.303341,0.0809 0.343786,0.12133 l 0.283118,0.16178 q 0,0.0607 0.08089,0.0607 0.08089,0 0.242672,-0.0809 0.161781,-0.10111 0.30334,-0.10111 0.161782,0 0.364009,0.22245 0.323563,-0.14156 0.364008,-0.14156 0.182004,0 0.626903,0.30334 l 0.384231,0.0809 h 0.4449 l 0.667348,0.12134 q 0.283118,0.30334 0.586458,0.46512 0.04045,-0.22245 0.283118,-0.22245 0.323563,0 0.990912,0.26289 l 0.161781,0.0404 0.161782,0.12133 q 0.343786,-0.0809 0.424676,-0.0809 0.404454,0 0.404454,0.28312 0,0.24267 -0.121336,0.6269 0.04045,0 0.121336,0.0809 0.101114,-0.12134 0.22245,-0.16179 l 0.323563,-0.182 q 0.08089,-0.0809 0.121336,-0.0809 0.465122,0 1.314475,0.64713 0.849353,0.64712 0.970689,1.47625 0,0.24267 0.161781,0.56624 l -0.08089,0.26289 0.04044,0.32356 q 0,0.0404 -0.08089,0.28312 l -0.04044,0.30334 q -0.04044,0.0809 -0.121336,0.14156 -0.08089,0.0607 -0.121336,0.14156 l 0.121336,0.34379 v 0.0809 q 0,0.0809 -0.161782,0.22245 -0.141559,0.14156 -0.182004,0.26289 -0.04044,0.12134 -0.141559,0.2629 -0.101113,0.12133 -0.141559,0.30334 -0.04044,0.182 -0.404453,0.42467 -0.343786,0.22245 -0.343786,0.34379 0,0.12134 0.08089,0.12134 0.242672,0 0.505567,-0.22245 0.283118,-0.24268 0.424676,-0.28312 0.141559,-0.0404 0.485345,-0.24267 l 1.900933,-0.8898 q 2.123382,-1.01114 2.366055,-1.01114 0.323563,0 0.323563,0.32357 0,0.12133 -0.283118,0.46512 -0.04044,0.95046 -0.82913,1.11225 -0.303341,0.20222 -0.465122,0.42467 h -0.161782 q -0.505567,0.56624 -1.152693,0.56624 h -0.121336 q -0.74824,0.74824 -1.820042,0.82913 -0.707794,0.70779 -1.172916,0.70779 l -0.323563,0.0809 q -0.505568,0.20223 -0.707795,0.20223 -0.04044,0 -0.161781,0.16178 l -0.30334,0.22245 q -0.384232,0.0809 -0.829131,0.4449 -0.444899,0.36401 -0.687571,0.42468 -0.22245,0.0404 -0.485345,0.16178 -0.262895,0.12133 -2.123382,1.37514 l -0.262895,0.0809 q -0.788685,0.36401 -0.990912,0.60668 -0.202227,0.22245 -0.485344,0.38423 h -0.08089 q -0.465122,0 -1.092026,0.60668 -0.04044,0.10112 -0.889798,0.34379 -0.82913,0.22245 -1.597592,0.70779 -0.485345,0.12134 -1.193139,0.32357 -0.707794,0.20222 -1.031357,0.24267 l -1.415589,0.30334 q -0.465121,0.0809 -1.071802,0.24267 -0.364009,-0.12133 -0.626904,-0.12133 l -0.364008,0.0404 q -0.08089,0 -0.262895,-0.14156 -0.161781,-0.14156 -0.444899,-0.28312 -0.283118,-0.12133 -0.283118,-0.68757 0,-0.50556 1.112248,-0.99091 1.112248,-0.50557 1.456034,-0.70779 0.161781,-0.22245 0.546013,-0.2629 0.404453,-0.0404 0.687571,-0.24267 0.283118,-0.20223 0.869576,-0.36401 l 0.808907,-0.42467 q 0.06067,-0.0404 0.101114,-0.0404 h 0.283117 q 0.141559,0 0.424677,-0.22245 0.283117,-0.22245 0.586458,-0.32356 h 0.242672 q 0.04045,0 0.121336,-0.10112 0.08089,-0.10111 0.364009,-0.26289 l 0.06067,-0.0404 h 0.202227 q 0.222449,-0.182 0.52579,-0.30334 0.30334,-0.12133 0.586458,-0.32356 l 1.577369,-0.60668 0.364009,0.0404 q 0.121336,0 0.30334,-0.182 0.202227,-0.20223 0.910021,-0.40445 0.101114,-0.16178 0.424677,-0.38423 0.323563,-0.22245 0.768462,-0.64713 z m -7.057718,5.05567 -0.283118,-0.0404 q -0.283118,0.16178 -0.566235,0.182 -0.262895,0.0202 -0.849353,0.38423 -0.566236,0.34379 -1.314475,0.66735 -0.74824,0.32356 -0.74824,0.42468 0.990912,-0.12134 2.062715,-0.54602 l 1.456033,-0.40445 q 0.283118,-0.0809 0.384231,-0.16178 0.121337,-0.0809 0.4449,-0.22245 l 0.323563,-0.24267 q 0.101113,-0.0404 0.444899,-0.16179 0.343786,-0.12133 0.343786,-0.24267 0,-0.0809 -0.08089,-0.0809 -0.728017,0 -1.152693,0.22245 -0.424677,0.22245 -0.465122,0.22245 z"
         style="font-style:normal;font-variant:normal;font-weight:normal;font-stretch:normal;font-size:medium;line-height:1.25;font-family:'Rage Italic';-inkscape-font-specification:'Rage Italic, ';letter-spacing:0px;word-spacing:0px;fill:#ffffff;fill-opacity:1;stroke:none;stroke-width:1.0354017;stroke-opacity:1"
         id="path1568" />
      <path
         inkscape:connector-curvature="0"
         d="m 61.787594,254.56642 0.283117,-0.0809 0.202227,-0.20223 h 0.04045 l 0.182004,0.0809 h 0.04045 q 0.485345,0 0.849353,-0.182 0.384231,-0.20223 0.626904,-0.28312 0.262895,-0.0809 0.323563,-0.12133 0.06067,-0.0405 0.101113,-0.0405 l 0.323563,0.0405 q 0.161782,0 0.424677,-0.56624 0.283117,-0.58646 0.626903,-0.84935 0.343786,-0.2629 0.687572,-0.99091 0.08089,-0.10112 0.182004,-0.30334 0.101113,-0.22245 0.161781,-0.22245 0.303341,0 0.485345,-0.38423 0.606681,-0.7078 0.990912,-0.7078 0.505567,0 0.707794,0.97069 l 0.202227,0.76846 q 0,0.0202 -0.101114,0.30334 -0.101113,0.2629 -0.101113,0.54602 0.02022,0.26289 -0.02022,0.364 -0.02022,0.0809 -0.02022,0.20223 0,0.16178 0.343786,0.16178 0.121336,0 0.444899,-0.16178 l 0.121336,-0.0404 q 0.202227,0.12133 0.343786,0.12133 0.04045,0 0.566236,-0.20222 0.546012,-0.20223 0.687571,-0.22245 0.141559,-0.0202 0.485345,-0.16179 h 0.242672 l 0.161781,0.0607 q 0.08089,0 0.323563,-0.16178 0.262895,-0.182 0.970689,-0.22245 l 0.283118,-0.12134 h 0.08089 q 0.667349,0 0.667349,0.58646 0,0.12134 -0.202227,0.42468 -0.182004,0.30334 -0.303341,0.68757 l -0.930243,1.17292 q -0.465122,0.60668 -0.930244,0.60668 -0.08089,0 -0.505567,-0.54602 0,-0.0404 -0.08089,-0.0404 -0.202227,0 -0.424677,0.0809 -0.222449,0.0809 -0.364008,0.0809 -0.06067,0 -1.071803,0.30334 l -0.485344,0.0809 q -0.08089,0 -0.384231,0.0809 l -1.031357,0.20223 q -0.52579,0.26289 -0.829131,0.99091 0,0.0404 -0.202227,0.18201 L 66.054596,258.51 q -0.444899,0.12133 -0.586458,0.52579 l -0.08089,0.12133 q -0.22245,0.0405 -0.404454,0.2629 -0.182004,0.20222 -0.343786,0.32356 L 64.275,260.28959 q -0.22245,0.28312 -0.4449,0.62691 -0.222449,0.32356 -0.323563,0.70779 -0.101113,0.36401 -0.161781,0.42468 -0.06067,0.0607 -0.06067,0.22245 l -0.06067,0.16178 q -0.242673,0.24267 -0.242673,0.54601 l 0.08089,0.32356 q -0.283117,0.97069 -0.283117,1.03136 0,0.0405 0.04045,0.22245 v 0.12134 q 0,0.4449 -0.323563,1.11224 l 0.04045,0.32357 -0.121336,0.91002 q 0,0.182 0.121336,0.66735 -0.08089,0.0809 -0.08089,0.12133 0,0.56624 0.586458,1.25381 0.60668,0.66735 0.60668,2.10316 0,0.12134 -0.06067,0.36401 -0.06067,0.22245 -0.08089,0.50557 -0.02022,0.26289 -0.323563,0.52579 -0.283117,0.26289 -0.485344,0.26289 -1.071803,0 -1.597593,-1.55715 -0.52579,-1.55714 -0.52579,-2.00204 l 0.04045,-0.78869 -0.121336,-0.40445 0.121336,-1.7796 -0.08089,-0.42467 0.465122,-1.73916 v -0.6269 q 0,-0.0404 0.283118,-0.32356 0,-0.0405 -0.08089,-0.0405 -0.121336,0 -0.323563,0.24267 -0.202227,0.24268 -0.505568,0.46513 l -0.161781,0.28311 q -0.04045,-0.0404 -0.161782,-0.0809 -0.101113,0.0405 -0.667348,0.95047 -0.424677,0.0607 -0.667349,0.48534 -0.242672,0.42468 -0.667349,0.42468 l -0.08089,0.0405 q -0.08089,0.58645 -0.566235,0.58645 l -0.08089,0.0404 q -0.30334,0.68757 -0.626903,0.66735 -0.202227,0.60668 -0.990912,0.82913 -0.121336,0.24267 -0.343786,0.36401 -0.242672,0.12133 -0.343785,0.22245 -0.101114,0.10111 -0.182005,0.10111 -0.262895,0 -0.262895,-0.56624 0,-0.16178 0.141559,-0.34378 0.121336,-0.20223 0.121336,-0.28312 0,-0.0404 -0.202226,-0.24267 0,-0.6269 0.323563,-0.78869 0.323563,-0.16178 0.485344,-0.46512 0.101114,-0.24267 0.404454,-0.34378 0.30334,-0.10112 0.30334,-0.2629 0,-0.14156 0.52579,-0.56623 0.52579,-0.42468 0.768462,-0.72802 0.242673,-0.32356 0.404454,-0.32356 l 0.08089,-0.0809 q 0.04044,-0.50557 0.384231,-0.50557 l 0.202227,-0.12134 0.04044,-0.16178 0.121337,-0.0809 h 0.161781 l 0.101114,-0.0809 q 0.04044,-0.50557 0.465121,-0.78869 0.4449,-0.28311 1.597593,-1.57737 1.152693,-1.31447 1.294252,-1.67848 0.141559,-0.36401 0.505567,-0.97069 0.384231,-0.6269 0.424677,-1.17291 -0.04045,-0.0809 -0.121336,-0.16179 l -0.869576,0.42468 q 0,-0.0607 -0.404454,-0.182 -0.30334,0.182 -0.444899,0.36401 -0.141559,0.182 -0.22245,0.182 l -0.283117,-0.0404 -0.889799,0.10112 q -1.193138,0.10111 -1.799819,0.48534 l -0.82913,0.24267 h -0.182005 q -0.161781,0 -0.485344,0.20223 l -0.465122,-0.0404 q -0.647126,0.34378 -0.950466,0.34378 -0.04045,0 -0.242673,-0.0404 l -2.062714,0.56623 q -0.242672,0.0809 -1.092025,0.82913 l -0.161782,0.0404 q -0.202227,0 -0.465122,-0.4449 -0.283117,-0.46512 -0.283117,-0.82913 0,-2.00205 3.437857,-2.32561 l 0.82913,-0.32356 h 0.04045 l 0.222449,0.0809 h 0.08089 q 0.121336,0 0.384231,-0.14156 0.262895,-0.16178 1.172916,-0.38423 l 0.82913,-0.22245 0.262895,0.0404 q 0.202227,0 0.4449,-0.16178 0.262895,-0.16178 0.768462,-0.22245 0.52579,-0.0809 0.728017,-0.16178 l 0.323563,-0.0809 q 0.08089,0 0.323563,-0.14156 0.262895,-0.14156 0.667348,-0.14156 0.06067,0 0.303341,0.0809 z"
         style="font-style:normal;font-variant:normal;font-weight:normal;font-stretch:normal;font-size:medium;line-height:1.25;font-family:'Rage Italic';-inkscape-font-specification:'Rage Italic, ';letter-spacing:0px;word-spacing:0px;fill:#ffffff;fill-opacity:1;stroke:none;stroke-width:1.0354017;stroke-opacity:1"
         id="path1570" />
      <path
         inkscape:connector-curvature="0"
         d="m 69.007095,264.63732 0.283117,0.12134 q 0.04045,-0.34379 0.384231,-0.58646 h 0.161782 q 0.202227,0 0.52579,-0.54601 l 0.343786,-0.20223 q 0.08089,0.0404 0.242672,0.0404 0.121336,0 0.222449,-0.16179 0.121337,-0.16178 0.566236,-0.6269 h 0.08089 q 0.121337,0 0.283118,-0.182 0.182004,-0.18201 0.465122,-0.18201 l 0.687571,-0.182 q 0.323563,-0.0809 0.364009,-0.0809 0.182004,-0.0607 0.889798,0.74824 0.707794,0.78868 0.707794,1.53692 0,0.42468 -0.444899,0.50557 l -0.101113,0.0809 v 0.40445 l -0.343786,0.74824 q -0.141559,0.30334 -0.343786,0.38423 -0.182004,0.32357 -0.262895,0.4449 l -0.283117,0.0404 -0.121336,0.12133 v 0.50557 q -0.182005,0.24267 -0.52579,1.0718 -0.343786,0.80891 -0.343786,1.03136 0,0.38423 0.161781,0.38423 0.121336,0 0.242673,-0.10111 0.121336,-0.10111 0.323563,-0.22245 0.222449,-0.14156 0.323563,-0.28312 0.101113,-0.14156 0.424676,-0.24267 0.323563,-0.12134 0.606681,-0.42468 0.283118,-0.30334 0.404454,-0.40445 0.121336,-0.10111 0.262895,-0.2629 0.141559,-0.182 0.182004,-0.182 0.121336,0 0.384231,-0.0809 0.04045,-0.22245 0.08089,-0.32356 l 0.485344,-0.24268 1.172916,-1.05158 0.161782,-0.20222 q 0.323563,-0.0809 0.404454,-0.12134 0.161781,-0.54601 0.546012,-0.78868 0,-0.0809 0.202227,-0.12134 0.161782,-0.32356 0.404454,-0.50557 0.262895,-0.20222 0.424676,-0.48534 l 0.465122,-0.38423 q 0.202227,-0.0809 0.283118,-0.24268 1.05158,-0.93024 1.294252,-1.05158 0.262895,-0.14155 0.82913,-0.14155 0.566236,0 0.910021,0.4449 0.364009,0.42467 0.768463,0.64712 0.424676,0.22245 0.424676,0.84935 0,0.58646 -0.910021,2.24472 -0.586458,1.73915 -0.606681,2.14361 -0.02022,0.38423 -0.182004,0.4449 -0.161781,0.0607 -0.161781,0.14156 v 0.0809 q 0,0.48534 0.161781,0.48534 0.121336,0 0.323563,-0.20223 0.22245,-0.20222 0.869576,-0.44489 l 0.182004,0.0404 q 0.586458,-0.8898 0.788685,-0.95047 0.202227,-0.0809 0.404454,-0.364 0.202227,-0.30334 0.485344,-0.32357 0.303341,-0.0202 0.384232,-0.10111 0.02022,-0.48535 0.788684,-1.09203 0.788685,-0.60668 0.910021,-0.60668 0.202227,0 0.323564,0.30334 0.121336,0.30334 0.242672,0.42468 0.141559,0.10111 0.141559,0.182 v 0.36401 q 0,0.2629 -0.262895,0.34379 -0.202227,0.4449 -0.364009,0.52579 l -0.364008,-0.0404 q -0.101114,0.12134 -0.182004,0.22245 -0.06067,0.10112 -0.08089,0.0809 -0.161782,0.0404 -0.586458,0.54602 -0.404454,0.48534 -0.728017,0.8089 l -0.08089,0.12134 q -0.161781,0.12134 -0.30334,0.16178 l -0.364009,0.30334 q -0.202226,-0.12133 -0.242672,-0.12133 -0.04044,0 -0.182004,0.16178 -0.121336,0.16178 -0.52579,0.42467 -0.384231,0.24268 -0.586458,0.56624 l -0.323563,0.32356 -0.424676,0.0607 q -0.06067,0 -0.202227,0.182 l -0.364009,0.46513 q -0.262895,0.34378 -0.82913,0.34378 -0.121336,0 -0.323563,-0.20223 -0.182004,-0.22244 -0.364009,-0.364 -0.161781,-0.16179 -0.768462,-0.91002 -0.586458,-0.76847 -0.586458,-0.80891 l 0.121336,-0.7078 -0.04044,-0.48534 q 0,-0.14156 0.182004,-0.42468 0.202227,-0.30334 0.202227,-0.32356 l -0.04045,-0.78869 q 0.04045,-0.0404 0.08089,-0.12133 l 0.283118,-0.46512 q -0.04044,-0.20223 -0.04044,-0.4449 l 0.08089,-0.66735 q -0.364009,0.16178 -0.647127,0.66735 -0.262895,0.48534 -0.707794,0.48534 -0.384231,0.68757 -0.586458,0.66735 -0.08089,0.0809 -0.121336,0.16178 l -0.283118,0.16178 -0.343785,-0.0404 -0.121336,0.50557 q -0.4449,0.24267 -0.586458,0.44489 -0.121337,0.18201 -0.404454,0.38424 l -0.343786,0.32356 h -0.323563 q -0.08089,0.54601 -0.626903,0.91002 l -0.161782,0.20223 -0.364008,-0.0404 q -0.202227,0.64713 -0.505568,0.78869 -0.343785,0 -0.950466,0.6269 -0.586458,0.6269 -0.82913,0.6269 -1.759374,0 -2.8514,-2.20427 -0.04045,-0.0809 -0.202226,-0.30334 -0.141559,-0.22245 -0.141559,-0.68757 0,-0.78869 0.202227,-1.0718 0.222449,-0.28312 0.546012,-1.05158 0.343786,-0.78869 0.505568,-0.68758 0.04045,-0.0809 0.04045,-0.24267 0.323563,-0.38423 0.323563,-0.58646 0,-0.0809 -0.08089,-0.0809 -0.04045,0 -0.242672,0.12134 l -0.283118,0.12134 q -0.182004,0.0404 -0.262895,0.16178 -0.08089,0.12133 -0.283117,0.24267 -0.202227,0.10111 -0.323563,0.182 h -0.06067 q -0.121336,-0.12133 -0.161781,-0.12133 -0.121336,0.32356 -0.202227,0.40445 l -0.242672,0.0404 q -0.444899,0.46512 -0.566236,0.46512 -0.08089,0 -0.364008,-0.14156 -0.283118,-0.14156 -0.283118,-0.28312 l 0.141559,-0.78868 v -0.36401 q 0,-0.0405 0.161782,-0.16178 0.04044,0 0.323563,-0.42468 0.283117,-0.4449 0.667349,-0.4449 z"
         style="font-style:normal;font-variant:normal;font-weight:normal;font-stretch:normal;font-size:medium;line-height:1.25;font-family:'Rage Italic';-inkscape-font-specification:'Rage Italic, ';letter-spacing:0px;word-spacing:0px;fill:#ffffff;fill-opacity:1;stroke:none;stroke-width:1.0354017;stroke-opacity:1"
         id="path1572" />
      <path
         inkscape:connector-curvature="0"
         d="m 88.643327,270.88613 -0.161782,-1.03135 q 0,-0.12134 0.121337,-0.38424 0.121336,0 0.202226,-0.0809 l -0.121336,-0.364 q 0,-0.7078 0.384231,-1.21337 0.404454,-0.52579 0.4449,-0.70779 0.04045,-0.182 0.566235,-1.17292 0.546013,-1.01113 0.808907,-1.29425 l 0.121337,-0.26289 0.161781,-0.0405 q 0.465122,-0.74824 1.314475,-1.35492 0.283118,-0.4449 0.687571,-0.72802 0.404454,-0.28311 0.546013,-0.40445 0.141559,-0.12134 0.424677,-0.16178 l 0.08089,-0.0404 q 0.586454,-0.58645 1.011134,-0.58645 0.14156,-0.14156 0.56624,-0.32357 h 0.22245 q 0.12133,0 0.24267,-0.0809 0.12133,-0.0809 0.24267,-0.0809 0.0809,0 0.42468,0.16178 0.32356,-0.32356 0.52579,-0.32356 0.42467,0 0.84935,0.32356 0.4449,0.32357 0.56624,0.78869 0.12133,0.46512 0.20222,0.54601 0.0809,0.0809 0.16178,0.20223 0.16178,0 0.42468,-0.74824 l 0.24267,-0.32357 q 0.546007,-0.70779 0.748237,-1.65826 0.0404,-0.0404 0.12134,-0.32356 0.0809,-0.30334 0.42467,-1.01113 0.58646,-0.84936 0.82913,-1.73916 l 0.24268,-0.364 q 0.24267,-0.16179 0.26289,-0.34379 0.0202,-0.20223 0.12134,-0.36401 0.10111,-0.16178 0.22245,-0.38423 0.14156,-0.24267 0.22245,-0.32356 0.0809,-0.0809 0.24267,-0.54601 0.16178,-0.48535 0.38423,-0.54602 0.24267,-0.0607 0.48535,-0.22245 l 0.0404,-0.14156 -0.0809,-0.28311 q 0,-0.24268 0.52579,-0.84936 0.54601,-0.60668 0.76846,-0.99091 0.24267,-0.40445 0.78869,-1.21336 0.56623,-0.82913 0.8089,-1.01113 l 0.46513,-0.48535 q 0.32356,-0.46512 0.91002,-0.46512 0.4449,0 0.93024,0.48534 0.48535,0.46513 0.48535,0.93025 0,0.16178 -0.22245,0.74824 l -0.0405,0.24267 q 0,0.32356 -0.22245,0.76846 -0.22245,0.4449 -0.26289,0.68757 l -1.13247,2.77051 q -0.20223,0.0809 -0.24268,0.12134 -0.52579,1.15269 -0.82913,1.2538 v 0.40446 q 0,0.22245 -0.28311,0.32356 l -0.0809,0.0404 q -0.182,0.76846 -0.46512,1.11224 -0.28312,0.34379 -0.42467,0.7078 -0.12134,0.34378 -0.40446,0.38423 -0.28312,0.0405 -0.28312,0.78869 -0.0809,0.40445 -0.40445,0.40445 -0.30334,0 -0.38423,0.52579 -0.0809,0.52579 -0.78869,0.56623 -0.20222,0.12134 -0.24267,0.28312 l 0.16178,0.50557 q 0,0.12134 -0.74824,0.95047 l -0.16178,0.52579 q -0.38423,0.14155 -0.6269,2.08293 l -0.24267,1.39537 0.0404,0.54601 -0.0809,0.28312 0.24267,0.82913 -0.0404,0.46512 q 0,0.32356 0.24267,0.32356 0.12134,0 0.54601,-0.364 l 0.28312,-0.12134 q 1.27403,-0.64713 1.57737,-1.25381 0.0809,-0.0809 0.28312,-0.16178 0.22245,-0.0809 0.32356,-0.22245 0.10112,-0.14156 0.16178,-0.20223 1.23359,-0.8089 1.5976,-1.41558 0.364,-0.60668 0.74824,-0.72802 l 0.16178,-0.16178 q 0.24267,-0.20223 0.40445,-0.20223 0.34379,0 0.34379,0.20223 l -0.16178,0.56623 q 0.20222,0.54602 0.20222,0.62691 0,0.70779 -0.6269,0.86957 -0.2629,0.2629 -0.42468,0.60668 -0.14156,0.34379 -0.64712,0.42468 -0.34379,0.48534 -0.62691,0.64713 -0.28312,0.14155 -0.28312,0.30334 v 0.182 q -0.16178,0.24267 -0.28311,0.32356 l -0.38423,-0.0809 q -0.0809,0.24267 -0.36401,0.66735 -0.10112,-0.0809 -0.18201,-0.0809 -0.28311,0 -0.46512,0.34379 -0.182,0.34378 -0.26289,0.34378 h -0.46513 q -0.10111,0.0607 -0.32356,0.2629 -0.22245,0.20222 -0.74824,0.20222 l -0.6269,0.12134 q -0.8898,0 -1.63804,-0.56624 -0.748237,-0.58645 -0.808907,-1.05158 -0.0404,-0.48534 -0.32356,-1.15269 l -0.0404,-0.82913 q -0.22245,-1.29425 -0.50557,-1.29425 l -0.0404,0.26289 -0.16178,0.0809 q -0.12134,0.62691 -0.40445,0.62691 -0.12134,0.0607 -0.2629,0.20222 l -0.12133,0.0809 q -0.0809,0.0404 -0.24268,0.34378 -0.14156,0.30334 -0.82913,0.84935 -0.28311,0.74824 -0.42467,0.74824 l -0.24268,-0.16178 h -0.0404 q -0.16178,0 -0.2629,0.48535 -0.10111,0.46512 -0.40445,0.46512 -0.0809,0 -0.16178,0.28312 -0.0607,0.26289 -0.343787,0.34378 -0.283117,0.0607 -0.505567,0.54601 -0.22245,0.48535 -0.30334,0.48535 -0.04045,0 -0.121336,-0.0404 l -0.343786,0.0809 q -0.101114,0.14156 -0.283118,0.46513 -0.182004,0.0607 -0.323563,0.16178 -0.626903,0.60668 -1.658261,0.60668 -0.728016,0 -1.152693,-0.30334 -0.424676,-0.32356 -0.505567,-0.54601 -0.08089,-0.22245 -0.30334,-0.54602 -0.22245,-0.34378 -0.283118,-0.82913 z m 15.065903,-12.80096 -0.20223,0.58646 q 0.2629,-0.0405 0.46512,-0.54601 0.60668,-0.86958 0.82913,-1.07181 0.2629,0 0.38423,-0.32356 0.14156,-0.34379 0.48535,-0.66735 0,-0.14156 0.30334,-0.54601 0.30334,-0.40446 0.38423,-0.56624 0.10111,-0.182 0.38423,-0.46512 0.28312,-0.28312 0.52579,-0.97069 0.2629,-0.68757 0.4449,-0.82913 0.182,-0.14156 0.182,-0.56623 0,-0.58646 -0.0809,-0.58646 -0.182,0 -0.28311,0.24267 -0.0809,0.22245 -0.38423,0.58646 l -0.68758,1.15269 q -0.40445,0.68757 -0.54601,1.09203 -0.12134,0.40445 -0.30334,0.48534 -0.16178,0.0607 -0.40445,0.38423 l -0.28312,0.28312 q -0.10111,0.24267 -0.16178,0.58646 l -0.18201,0.16178 v 0.38423 q 0,0.2629 -0.30334,0.48535 -0.30334,0.20222 -0.30334,0.26289 z m -6.997047,8.21041 0.14156,-0.26289 q 0.34378,-0.12134 0.4449,-0.60668 0.16178,-0.12134 0.82913,-1.05158 0.66734,-0.93025 0.66734,-1.03136 -0.20222,-0.20223 -0.46512,-0.20223 -0.0404,0 -0.24267,0.0809 -0.20223,0.0809 -0.42468,0.12134 -0.20222,0.0404 -0.4449,0.16178 l -0.50556,-0.0809 q -0.22245,0 -0.99091,0.58646 l -0.46513,-0.0809 q -0.12133,0 -0.40445,0.52579 l -1.031357,0.82913 h -0.121337 q -0.283117,0 -0.384231,0.50556 -0.343785,0.4449 -0.647126,0.62691 -0.30334,0.16178 -0.424676,0.48534 v 0.2629 q -0.566236,0.6269 -0.566236,0.95046 -0.424676,0.40446 -0.566235,0.86958 -0.121336,0.46512 -0.30334,0.78868 0.08089,0.28312 0.121336,0.7078 0.04045,0.40445 0.404454,0.40445 0.586458,0 1.294252,-0.70779 0.04045,-0.0405 0.343786,-0.22245 0.30334,-0.18201 0.82913,-0.7078 0.546012,-0.54601 0.606681,-0.56623 0.202226,-0.20223 0.242672,-0.20223 l 0.161777,-0.16178 q 0,-0.0809 0.16179,-0.182 0.182,-0.10112 0.46512,-0.40446 0.28312,-0.32356 0.42467,-0.38423 0.16179,-0.0607 0.22245,-0.16178 0.0607,-0.12134 0.20223,-0.22245 0.14156,-0.10111 0.14156,-0.22245 l 0.0404,-0.24267 z"
         style="font-style:normal;font-variant:normal;font-weight:normal;font-stretch:normal;font-size:medium;line-height:1.25;font-family:'Rage Italic';-inkscape-font-specification:'Rage Italic, ';letter-spacing:0px;word-spacing:0px;fill:#ffffff;fill-opacity:1;stroke:none;stroke-width:1.0354017;stroke-opacity:1"
         id="path1574" />
      <path
         inkscape:connector-curvature="0"
         d="m 115.11483,255.71912 -0.12134,-0.78869 v -0.12134 q 0,-0.95046 0.64713,-1.05158 0.14156,-0.0202 0.84935,-0.26289 0.36401,0.0809 0.74824,0.64713 0.40445,0.54601 0.40445,0.97068 0,0.0404 -0.0607,0.18201 -0.0607,0.14156 -0.0809,0.54601 -0.0202,0.38423 -0.40446,0.68757 -0.36401,0.28312 -0.78868,0.28312 -0.28312,0 -0.72802,-0.38423 -0.42468,-0.40445 -0.46512,-0.70779 z m -8.7362,10.11134 0.32356,-0.28312 h 0.12133 q 0.14156,0 0.42468,-0.30334 l 0.20223,-0.0809 q 0.40445,-0.60668 0.70779,-0.70779 l 0.32357,-0.24268 q 0.0809,-0.0809 0.22244,-0.14155 0.16179,-0.0607 0.48535,-0.38424 0.34379,-0.34378 0.54601,-0.34378 0.20223,0 0.32357,0.0404 0.12133,-0.24267 0.48534,-0.46512 0.36401,-0.24267 0.58646,-0.56623 l 0.26289,-0.12134 q 0.32357,-0.16178 0.56624,-0.40445 0.26289,-0.2629 0.66735,-0.2629 0.58645,0 1.21336,0.60668 0.64712,0.58646 0.64712,1.13247 l -0.34378,1.57737 q -0.34379,1.73915 -0.76846,1.82005 l -0.0809,0.42467 q -0.28312,0.20223 -0.28312,0.32357 l 0.12133,0.48534 q 0,0.10111 -0.22245,0.30334 -0.0404,0 -0.0404,0.12134 v 0.82913 q 0,0.22245 -0.28312,0.36401 0.0405,0.0404 0.12134,0.0809 0.12133,-0.12134 0.54601,-0.12134 l 0.32356,0.0404 0.4449,-0.4449 q 0.14156,-0.0405 0.38423,-0.18201 0.2629,-0.16178 0.86958,-0.40445 l 2.64917,-2.02227 q 0.54601,-0.54601 0.82913,-0.54601 0.30334,0 0.30334,0.38423 0,0.4449 -0.182,0.74824 -0.16178,0.28311 -0.30334,0.70779 -0.14156,0.40445 -0.34379,0.56624 -0.182,0.16178 -0.30334,0.364 -0.12133,0.18201 -0.66735,0.54602 -0.52579,0.36401 -0.91002,0.74824 -0.36401,0.36401 -0.60668,0.52579 l -0.86957,0.6269 -0.12134,0.20223 q -0.0405,0.0404 -0.38423,0.182 -0.32356,0.12134 -0.58646,0.32356 l -0.36401,0.20223 q -0.12133,0.0809 -0.40445,0.10111 -0.2629,0.0202 -0.46512,0.24268 -0.20223,0.20222 -0.32357,0.20222 l -0.30334,-0.0404 -0.40445,0.12133 q -0.34379,0 -0.84935,-0.40445 -0.48535,-0.42468 -0.48535,-0.8898 v -0.12133 l 0.0404,-0.28312 q 0,-0.0809 -0.12134,-0.40446 -0.12134,-0.34378 -0.12134,-0.38423 l 0.0404,-0.28311 -0.0404,-0.12134 q 0,-0.54601 0.0809,-0.68757 0.0809,-0.14156 0.12133,-0.38423 0.0404,-0.2629 0.0809,-0.42468 l 0.10112,-0.50557 q 0.0809,-0.24267 0.20222,-0.32356 0.0404,-0.16178 0.16178,-0.54601 l 0.0809,-0.36401 0.20223,-0.28312 q 0.16178,-0.16178 0.18201,-0.42467 0.0404,-0.28312 0.22245,-0.58646 0.182,-0.30334 0.182,-0.36401 0,-0.24267 -0.24267,-0.24267 -0.0809,0 -0.50557,0.32356 l -0.36401,-0.12134 q -0.0404,0 -0.22245,0.20223 0,0.0809 -0.182,0.12134 -0.18201,0.0404 -0.34379,0.30334 l -0.16178,0.0404 -0.26289,-0.12133 h -0.0809 q -0.20222,0 -0.24267,0.4449 -0.22245,0.32356 -0.58646,0.42467 l -0.44489,0.12134 q -0.22245,0.0809 -0.32357,0.36401 -0.10111,0.28311 -0.40445,0.52579 -0.30334,0.22245 -0.40446,0.22245 -0.56623,0 -0.56623,-0.62691 l 0.16178,-0.95046 z"
         style="font-style:normal;font-variant:normal;font-weight:normal;font-stretch:normal;font-size:medium;line-height:1.25;font-family:'Rage Italic';-inkscape-font-specification:'Rage Italic, ';letter-spacing:0px;word-spacing:0px;fill:#ffffff;fill-opacity:1;stroke:none;stroke-width:1.0354017;stroke-opacity:1"
         id="path1576" />
      <path
         inkscape:connector-curvature="0"
         d="m 129.47294,270.72435 -0.95047,0.82913 q -0.0809,-0.0809 -0.16178,-0.0809 -0.20223,0 -0.50557,0.36401 -0.28312,0.36401 -0.40445,0.36401 l -0.20223,-0.0404 q -0.50557,0.38423 -0.72802,0.4449 -0.22245,0.0607 -0.54601,0.22245 -0.30334,0.16178 -0.56623,0.18201 -0.24268,0.0202 -0.40446,0.182 -0.16178,0.14156 -0.78868,0.14156 l -0.32357,-0.0405 q -0.26289,0.12134 -0.34378,0.12134 -0.16178,0 -0.34379,-0.16178 -0.182,-0.18201 -0.40445,-0.20223 -0.20223,-0.0202 -0.42468,-0.28312 -0.22245,-0.26289 -0.42467,-0.36401 -0.18201,-0.10111 -0.30334,-0.28311 l -0.28312,-0.24268 q -0.34379,-0.24267 -0.66735,-0.88979 -0.32356,-0.64713 -0.32356,-1.01114 v -0.0809 l 0.0404,-0.38423 -0.0404,-0.4449 q 0.0809,-0.0809 0.20222,-0.34379 v -0.64712 l 0.48535,-1.61782 q 0.0404,-0.10111 -0.16178,-0.26289 -0.20223,0.30334 -0.40446,0.36401 -0.20222,0.0607 -0.28312,0.28311 -0.0607,0.22245 -0.22244,0.22245 l -0.24268,-0.0809 q -0.0404,0.0404 -0.182,0.42468 -0.14156,0.36401 -0.48535,0.36401 -0.364,0 -0.364,-0.28312 l 0.0404,-0.36401 -0.12134,-0.50557 q 0,-0.16178 0.32357,-0.6269 0.32356,-0.48534 0.58646,-0.54601 0.28311,-0.0809 0.46512,-0.38423 0.20222,-0.32357 0.84935,-0.76846 0.36401,-0.0809 0.6269,-0.52579 0.28312,-0.22245 0.72802,-0.36401 0.46512,-0.14156 0.68757,-0.40446 0.24267,-0.28311 1.37515,-0.84935 1.15269,-0.58646 1.67848,-0.58646 0.16178,0 0.4449,-0.0809 0.28312,-0.10111 0.52579,-0.16178 0.24267,-0.0809 0.50557,-0.22245 0.26289,-0.16178 0.42467,-0.16178 l 0.58646,0.20223 q 0.64713,0.182 0.78868,0.26289 0.0404,0.0405 0.40446,0.18201 0.38423,0.12133 0.76846,0.34378 0.40445,0.22245 0.40445,0.82913 -0.34378,0.50557 -0.34378,0.54601 0,0.0809 0.46512,0.24268 0.16178,0.30334 0.48534,0.78868 l 0.22245,0.7078 0.0405,1.65826 -0.0405,0.16178 q -0.22245,0.20222 -0.22245,0.26289 l 0.0607,0.40446 -0.16178,0.56623 q -0.0607,0.2629 -0.20223,0.34379 -0.14155,0.0809 -0.182,0.20222 l -0.12134,0.16179 q -0.0404,0.0607 -0.182,0.364 -0.12134,0.28312 -0.28312,0.4449 -0.16178,0.16178 -0.20222,0.38423 -0.0404,0.22245 -0.20223,0.32357 -0.16178,0.10111 -0.24267,0.22245 -0.0607,0.10111 -0.22245,0.182 z m -6.28926,0.52579 0.0809,0.46512 0.0404,0.0405 h 0.32356 l 0.10111,0.0404 q 0.40446,0.0809 0.60668,0.0809 0.62691,0 0.99092,-0.30334 0.38423,-0.32356 0.60668,-0.32356 0.22245,0 0.364,-0.30334 0.16179,-0.30334 0.20223,-0.30334 h 0.28312 l 0.0809,-0.0404 q 0,-0.46512 0.40445,-0.66734 0.42468,-0.20223 0.58646,-0.52579 0.18201,-0.34379 0.40446,-0.50557 0.22244,-0.18201 0.30334,-0.46512 l 0.16178,-0.24268 q 0.0809,-0.0809 0.0809,-0.30334 l 0.38423,-0.72801 q 0.12134,-0.50557 0.12134,-0.78869 0,-0.42467 -0.4449,-0.66735 -0.42468,-0.24267 -0.42468,-0.95046 0,-0.46512 0.46512,-0.84936 0.48535,-0.40445 0.48535,-0.48534 0,-0.12134 -0.12134,-0.12134 -0.0607,0 -0.46512,0.16179 -0.14156,0.28311 -1.43581,0.74823 -0.42468,-0.20222 -0.46512,-0.20222 -0.12134,0 -0.24268,0.24267 -0.12133,0.24267 -0.24267,0.34379 h -0.26289 q -0.0405,0 -0.2629,0.26289 -0.22245,0.2629 -0.56623,0.2629 l -0.24268,0.24267 q 0.0202,0.32356 -0.40445,0.66735 l -0.22245,0.26289 q -0.20223,0.24267 -0.52579,0.56624 l -0.36401,0.91002 q -0.22245,0.52579 -0.22245,0.78868 -0.0607,0.12134 -0.28312,0.2629 -0.20222,0.12133 -0.20222,0.32356 0,0.0404 0.14156,0.20223 0.14155,0.16178 0.14155,0.24267 l -0.0809,0.2629 -0.0809,0.74823 z"
         style="font-style:normal;font-variant:normal;font-weight:normal;font-stretch:normal;font-size:medium;line-height:1.25;font-family:'Rage Italic';-inkscape-font-specification:'Rage Italic, ';letter-spacing:0px;word-spacing:0px;fill:#ffffff;fill-opacity:1;stroke:none;stroke-width:1.0354017;stroke-opacity:1"
         id="path1578" />
      <path
         inkscape:connector-curvature="0"
         d="m 153.84128,251.41168 -0.0404,0.22245 q -0.0607,0.34379 -0.56623,0.68757 -0.50557,0.34379 -1.01114,0.34379 -1.27402,0 -1.27402,-1.21336 0,-0.42468 0.64712,-1.03136 0.66735,-0.6269 1.75938,-0.86958 1.11224,-0.24267 1.57737,-0.46512 0.48534,-0.24267 1.47625,-0.36401 0.16178,0.16179 0.32356,0.16179 0.2629,0 0.36401,-0.18201 0.10112,-0.182 0.46512,-0.10111 h 0.10112 l 1.0718,-0.28312 0.32356,0.12134 q 0.0809,0 0.18201,-0.0809 0.12133,-0.0809 0.28312,-0.12134 h 0.32356 l 0.38423,-0.0809 q 0.4449,-0.12134 0.52579,-0.18201 l 0.34379,0.0404 q 0.38423,0 1.2538,-0.20223 0.8898,-0.20222 1.3347,-0.22245 0.46512,-0.0202 0.66735,-0.0607 0.22245,-0.0404 0.26289,-0.0404 0.12134,0 0.30334,0.12134 0.18201,0.12133 0.2629,0.12133 0.0809,0 1.13247,-0.24267 h 0.12134 l 0.91002,0.20223 q 0.36401,-0.20223 0.48534,-0.20223 0.42468,0 0.7078,0.28312 l 0.38423,-0.16178 0.20222,0.0404 q 0.12134,0 0.36401,-0.0404 h 0.16178 q 0.14156,0 0.30334,0.0404 0.0404,0.0405 0.0809,0.0405 0.20223,0 0.32357,-0.0405 h 0.26289 l 0.86958,0.20223 0.36401,-0.0404 q 0.0404,0 0.24267,0.12134 l 0.22245,-0.0404 q 0.20223,0.14156 0.72802,0.38424 0.10111,-0.0404 0.30334,-0.0809 h 0.0404 q 0.0404,0 0.40445,0.24268 l 0.58646,0.28311 0.16178,-0.0809 q 0.56624,0.28312 0.58646,0.32357 l 0.16178,0.34378 q 0.24268,0.12134 0.54602,0.32357 0.0607,0.20222 0.24267,0.46512 v 0.16178 q 0,0.0404 0.30334,0.30334 0.32356,0.24267 0.32356,0.36401 0,0.0404 -0.0404,0.28312 v 0.0404 q 0,0.0405 0.14156,0.2629 0.14155,0.22245 0.14155,0.52579 l -0.0404,0.28311 0.0404,0.2629 -0.20222,1.35492 q -0.18201,0.20223 -0.24267,0.40445 -0.0607,0.18201 -0.30335,0.28312 -0.24267,0.10111 -0.40445,0.42468 -0.14156,0.30334 -0.42468,0.40445 -0.28311,0.10111 -0.54601,0.36401 -0.24267,0.24267 -0.56623,0.24267 l -2.16383,0.64713 -0.24267,-0.0809 q -0.36401,0.58645 -1.07181,0.58645 -0.182,0 -0.8089,0.14156 l -0.40446,0.10112 -0.32356,-0.0404 -0.74824,0.14156 q -0.34379,0.0607 -0.50557,0.16178 -0.16178,0.0809 -0.40445,0.0809 l -0.54601,0.28312 q -0.0404,0.0404 -0.12134,0.0404 -0.16178,0 -0.20223,-0.0404 l -0.28311,-0.0809 q -0.16179,0.0404 -0.30334,0.14156 -0.12134,0.10111 -0.24268,0.10111 l -0.24267,-0.20223 -0.38423,0.32357 q -0.24267,0.0404 -0.64713,0.182 -0.26289,-0.14156 -0.34378,-0.14156 l -0.7078,0.30334 -0.40445,-0.12133 -0.0405,0.12133 q -0.28311,0 -0.58645,0.20223 -0.28312,0.20223 -0.48535,0.20223 -0.14156,0 -0.30334,-0.16178 -0.0809,0 -0.16178,-0.0809 -0.20223,0.14156 -0.30334,0.30335 -0.10111,0.14155 -0.4449,0.28311 l -0.48534,-0.14156 q 0,0.0607 -0.38424,0.22245 -0.38423,0.14156 -0.40445,0.24268 l -0.20223,0.28311 q -0.14155,0.34379 -0.22245,0.56624 -0.0809,0.22245 -0.20222,0.36401 -0.12134,0.12133 -0.22245,0.4449 -0.10112,0.32356 -0.36401,0.70779 l -0.0404,0.24267 q -0.12133,0.16178 -0.364,0.36401 l -0.46513,0.86958 q -0.20222,0.30334 -0.20222,0.42467 0,0.30334 0.54601,0.58646 l 2.1436,1.82004 0.34379,0.20223 h 0.0404 l -0.0809,0.36401 q 0.16178,0.10111 0.20222,0.10111 0.12134,0 0.12134,-0.182 h 0.12133 q 0.0405,0 0.20223,0.182 l 0.22245,0.12134 q 0.14156,0.14156 0.52579,0.46512 0.38423,0.32356 0.38423,0.4449 l -0.0404,0.16178 h 0.12133 q 0.0809,-0.0809 0.12134,-0.0809 0.0809,0 0.4449,0.24267 l 0.26289,0.12134 q 0.80891,0.58646 0.97069,0.78868 0.18201,0.20223 0.50557,0.46513 0.34379,0.24267 0.54601,0.56623 l 2.32561,1.73915 q 2.91207,2.18405 3.27608,2.91207 0.0809,0.12134 0.38423,0.24267 0.30334,0.12134 0.86957,0.66735 0.56624,0.56624 0.68758,0.86958 v 0.70779 q 0,0.0809 -0.20223,0.20223 l -0.2629,0.24267 q -0.52579,0.54601 -0.91002,0.54601 -0.95046,0 -1.39536,-0.42467 l -0.10112,-0.0404 h -0.20222 q -0.32357,0 -0.36401,-0.56624 l -0.0809,-0.26289 q -1.01114,-0.32356 -1.53693,-1.03136 l -1.15269,-1.0718 q -0.0405,-0.0404 -0.66735,-0.76846 -0.6269,-0.74824 -1.11225,-1.0718 -0.46512,-0.32357 -0.74824,-0.66735 -0.26289,-0.34379 -0.72801,-0.64713 -0.4449,-0.30334 -0.95047,-1.01113 -0.50557,-0.72802 -0.56624,-0.76847 -0.91002,-0.48534 -0.86957,-1.0718 -0.12134,-0.0809 -0.58646,-0.16178 -0.24267,-0.2629 -0.30334,-0.28312 -0.0607,-0.0202 -0.10111,-0.0607 l 0.0404,-0.32356 q -0.60668,-0.182 -0.84935,-0.4449 -0.24267,-0.28312 -0.64713,-0.74824 -0.40445,-0.46512 -0.70779,-0.70779 -0.28312,-0.2629 -0.30334,-0.40446 -0.0202,-0.14155 -0.38423,-0.34378 -0.14156,0.24267 -0.30334,0.38423 -0.16178,0.14156 -0.24267,0.32356 l -0.0809,0.12134 q -0.28311,0.28312 -0.28311,0.6269 -0.30334,0.24267 -0.38423,0.86958 l -0.91003,2.06271 -0.16178,0.74824 -0.12133,1.27403 q -0.0607,0.54601 -0.46512,0.54601 l -0.40446,0.0404 q -0.16178,-0.0809 -0.76846,-0.14156 -0.58646,-0.0809 -0.97069,-1.19314 -0.0404,-0.12133 -0.24267,-0.40445 -0.18201,-0.28312 -0.18201,-0.50557 0,-0.16178 0.12134,-0.52579 l 0.0809,-0.46512 q 0,-0.12134 0.50557,-1.15269 l 1.0718,-2.0425 0.52579,-0.78868 q 0.10111,-0.16178 0.22245,-0.60668 0.12134,-0.46512 0.36401,-0.76846 0.26289,-0.30334 0.26289,-0.4449 0,-0.24268 -0.38423,-0.48535 -0.36401,-0.24267 -0.40445,-0.46512 l -0.0809,-0.20223 q -1.07181,-0.6269 -1.07181,-1.41558 0,-0.42468 1.07181,-1.05158 1.0718,-0.64713 1.43581,-0.72802 0.38423,-0.0809 0.74824,-0.28312 l 0.34378,-0.0809 0.28312,-0.24267 q 0.24267,-0.0809 0.58646,-0.14156 0.36401,-0.0809 0.60668,-0.82913 0.2629,-0.76846 0.46512,-0.8898 0.40446,-0.82913 0.54601,-1.25381 0.0405,-0.0809 0.22245,-0.364 0.20223,-0.30335 0.40446,-0.97069 0.20222,-0.68758 0.28312,-0.68758 0.0809,0 0.32356,-0.0809 l -0.20223,-0.54601 q 0,-0.0809 0.16178,-0.24267 -0.28311,-0.34379 -0.28311,-0.82913 0,-0.78869 1.11224,-0.78869 0.20223,0 0.80891,0.36401 0.60668,0.34379 0.64713,0.50557 0.0404,0.16178 0.26289,0.52579 0.22245,0.34379 0.22245,0.58646 0,0.78868 -0.26289,1.03135 -0.2629,0.24268 -0.54602,1.07181 l -0.54601,1.53692 -0.0809,0.38423 -0.10111,0.16178 0.50556,-0.12133 q 0.16179,-0.4449 1.37515,-0.50557 l 1.27403,-0.40445 h 0.38423 l 1.23358,-0.34379 q 0.0809,0 0.58646,-0.0809 h 0.12134 l 0.24267,-0.0404 q 0.0809,0.0404 0.16178,0.16178 h 0.0809 q 0.22245,0 0.24267,-0.2629 0.0202,-0.26289 0.58646,-0.26289 0.0809,0 0.14156,0.10111 0.0809,0.10111 0.16178,0.10111 0.0405,-0.22245 0.30334,-0.30334 0.28312,-0.10111 0.40446,-0.10111 l 0.32356,0.0404 q -0.0404,-0.0404 -0.0404,-0.12134 0,-0.18201 1.23359,-0.38423 0.34378,-0.12134 0.54601,-0.30334 0.20223,-0.18201 1.27403,-0.52579 l 1.21336,-0.36401 q 0.74824,-0.24267 1.03136,-1.45603 -0.0404,-0.0404 -0.36401,-0.54602 0,-0.0404 -0.30334,-0.0404 -0.0809,-0.0809 -0.28312,-0.18201 -0.20223,-0.12133 -0.46512,-0.38423 l -0.24267,0.0809 q -0.28312,-0.16178 -0.66735,-0.24267 -0.36401,-0.10111 -0.78869,-0.42468 -0.16178,0.0809 -0.20222,0.0809 -0.0404,0 -0.4449,-0.20222 l -0.54601,-0.24267 h -0.32357 l -0.14156,-0.0404 q -0.12133,-0.14156 -0.20222,-0.14156 l -0.20223,0.0404 q -0.0809,0.0404 -0.20223,0.0404 H 168.705 q -0.0405,0 -0.32357,-0.20222 h -0.66734 l -0.36401,0.0809 q -0.0809,0 -0.2629,-0.16179 l -0.36401,0.0809 -0.36401,-0.16179 -0.54601,0.0809 q -0.16178,-0.12133 -0.24267,-0.12133 l -1.61782,0.16178 q -0.0809,0 -0.14155,-0.0809 -0.0607,-0.0809 -0.20223,-0.12134 -0.12134,-0.0404 -0.28312,-0.16178 -0.42468,0.24267 -0.82913,0.24267 l -0.6269,-0.0809 -0.12134,0.0405 h -0.0809 q -0.0404,0 -0.36401,-0.0809 0,0.0809 -0.0404,0.12133 l -0.30334,-0.0809 -1.11225,0.20223 h -0.0405 l -0.20222,-0.0404 q -0.0809,0 -0.24268,0.0607 -0.14155,0.0607 -0.22245,0.0607 l -0.44489,-0.0404 -0.34379,0.0809 -0.48534,-0.0404 -0.42468,0.30334 h -0.0809 q -0.0809,0 -0.18201,-0.0607 -0.10111,-0.0809 -0.14156,-0.0809 l -0.30334,0.0607 -0.24267,-0.0607 q -0.0809,0 -0.32356,0.38423 0,0.0404 -0.0809,0.0404 h -0.0404 l -0.30334,-0.0809 q -0.0809,0 -0.32356,0.28312 -0.38423,0.14155 -0.74824,0.30334 -0.28312,0.40445 -0.48534,0.48534 z m 1.3347,9.56533 h -0.50557 q -0.12134,0 -0.4449,0.24268 -0.30334,0.22245 -0.30334,0.30334 0,0.0809 0.46512,0.46512 0.48535,0.36401 0.60668,0.36401 0.36401,0 0.86958,-1.65826 l -0.20223,0.0809 -0.24267,-0.0405 q -0.24267,0.20223 -0.24267,0.24267 z"
         style="font-style:normal;font-variant:normal;font-weight:normal;font-stretch:normal;font-size:medium;line-height:1.25;font-family:'Rage Italic';-inkscape-font-specification:'Rage Italic, ';letter-spacing:0px;word-spacing:0px;fill:#ffffff;fill-opacity:1;stroke:none;stroke-width:1.0354017;stroke-opacity:1"
         id="path1580" />
    </g>
  </g>
</svg>
